<svg width="67" height="67" viewBox="0 0 67 67" fill="none" xmlns="http://www.w3.org/2000/svg">
<circle cx="33.5" cy="33.5" r="33.5" fill="#FF8A00"/>
<path fill-rule="evenodd" clip-rule="evenodd" d="M32.0009 19.3345C32.0012 19.0565 31.9145 18.7853 31.753 18.5589C31.5915 18.3326 31.3632 18.1624 31.1002 18.0721C30.8372 17.9819 30.5525 17.9762 30.2861 18.0557C30.0196 18.1353 29.7847 18.2962 29.6143 18.5159L20.2809 30.5159C20.0989 30.7499 20 31.038 20 31.3345C20 31.6311 20.0989 31.9191 20.2809 32.1532L29.6143 44.1532C29.7847 44.3729 30.0196 44.5337 30.2861 44.6133C30.5525 44.6929 30.8372 44.6871 31.1002 44.5969C31.3632 44.5067 31.5915 44.3365 31.753 44.1101C31.9145 43.8838 32.0012 43.6126 32.0009 43.3345V38.0145C39.1729 38.1639 42.6183 39.5252 44.3489 41.0052C45.9943 42.4119 46.2956 44.0665 46.6089 45.7999L46.6903 46.2465C46.7501 46.5661 46.9247 46.8529 47.1811 47.0528C47.4376 47.2527 47.7582 47.352 48.0828 47.332C48.4073 47.312 48.7134 47.1741 48.9434 46.9442C49.1734 46.7144 49.3114 46.4084 49.3316 46.0839C49.5596 42.4199 49.2169 37.1105 46.6289 32.6692C44.1169 28.3585 39.5929 25.0439 32.0009 24.6972V19.3345Z" fill="white"/>
</svg>
