<svg width="90" height="25" viewBox="0 0 90 25" fill="none" xmlns="http://www.w3.org/2000/svg">
<path d="M0.272 19V2.2H6.896C8.672 2.2 10.208 2.56 11.504 3.28C12.816 4 13.824 4.992 14.528 6.256C15.248 7.52 15.608 8.968 15.608 10.6C15.608 12.232 15.248 13.68 14.528 14.944C13.824 16.208 12.816 17.2 11.504 17.92C10.208 18.64 8.672 19 6.896 19H0.272ZM4.856 15.28H6.704C7.536 15.28 8.272 15.096 8.912 14.728C9.552 14.36 10.056 13.824 10.424 13.12C10.792 12.4 10.976 11.56 10.976 10.6C10.976 9.624 10.792 8.792 10.424 8.104C10.056 7.4 9.552 6.864 8.912 6.496C8.272 6.112 7.536 5.92 6.704 5.92H4.856V15.28ZM17.4014 19V10.36C17.4014 9.208 17.7294 8.304 18.3854 7.648C19.0574 6.976 19.9854 6.64 21.1694 6.64H24.9614V9.904H22.4414C22.1854 9.904 21.9774 9.984 21.8174 10.144C21.6574 10.304 21.5774 10.512 21.5774 10.768V19H17.4014ZM26.4734 19V6.64H30.6494V19H26.4734ZM28.5614 5.296C27.9214 5.296 27.3694 5.064 26.9054 4.6C26.4574 4.136 26.2334 3.592 26.2334 2.968C26.2334 2.328 26.4574 1.784 26.9054 1.336C27.3694 0.871999 27.9214 0.639999 28.5614 0.639999C29.2014 0.639999 29.7454 0.871999 30.1934 1.336C30.6574 1.784 30.8894 2.328 30.8894 2.968C30.8894 3.592 30.6574 4.136 30.1934 4.6C29.7454 5.064 29.2014 5.296 28.5614 5.296ZM33.0594 19V11.896C33.0594 10.84 33.3154 9.896 33.8274 9.064C34.3554 8.216 35.0914 7.552 36.0354 7.072C36.9954 6.592 38.1154 6.352 39.3954 6.352C40.6754 6.352 41.7794 6.592 42.7074 7.072C43.6354 7.552 44.3474 8.216 44.8434 9.064C45.3394 9.896 45.5874 10.84 45.5874 11.896V19H41.4114V12.088C41.4114 11.72 41.3234 11.384 41.1474 11.08C40.9714 10.76 40.7234 10.504 40.4034 10.312C40.0994 10.12 39.7394 10.024 39.3234 10.024C38.9234 10.024 38.5554 10.12 38.2194 10.312C37.8994 10.504 37.6514 10.76 37.4754 11.08C37.2994 11.384 37.2114 11.72 37.2114 12.088V19H33.0594ZM56.6536 19C55.2136 18.984 53.9256 18.768 52.7896 18.352C51.6536 17.936 50.6856 17.352 49.8856 16.6C49.0856 15.848 48.4696 14.968 48.0376 13.96C47.6216 12.936 47.4136 11.816 47.4136 10.6C47.4136 9.384 47.6216 8.272 48.0376 7.264C48.4696 6.24 49.0856 5.352 49.8856 4.6C50.6856 3.848 51.6536 3.264 52.7896 2.848C53.9256 2.416 55.2136 2.2 56.6536 2.2H59.2216V5.92H56.7976C56.0456 5.92 55.3736 6.04 54.7816 6.28C54.2056 6.52 53.7176 6.856 53.3176 7.288C52.9176 7.704 52.6136 8.2 52.4056 8.776C52.1976 9.336 52.0936 9.944 52.0936 10.6C52.0936 11.256 52.1976 11.872 52.4056 12.448C52.6136 13.008 52.9176 13.504 53.3176 13.936C53.7176 14.352 54.2056 14.68 54.7816 14.92C55.3736 15.16 56.0456 15.28 56.7976 15.28H59.2216V19H56.6536ZM67.4266 19.312C66.1466 19.312 65.0266 19.064 64.0666 18.568C63.1226 18.072 62.3866 17.408 61.8586 16.576C61.3466 15.744 61.0906 14.8 61.0906 13.744V6.64H65.2426V13.552C65.2426 13.904 65.3306 14.24 65.5066 14.56C65.6826 14.88 65.9306 15.136 66.2506 15.328C66.5866 15.52 66.9546 15.616 67.3546 15.616C67.7706 15.616 68.1306 15.52 68.4346 15.328C68.7546 15.136 69.0026 14.88 69.1786 14.56C69.3546 14.24 69.4426 13.904 69.4426 13.552V6.64H73.6186V13.744C73.6186 14.8 73.3706 15.744 72.8746 16.576C72.3786 17.408 71.6666 18.072 70.7386 18.568C69.8106 19.064 68.7066 19.312 67.4266 19.312ZM82.6689 6.328C83.7089 6.328 84.6449 6.488 85.4769 6.808C86.3089 7.128 87.0129 7.592 87.5889 8.2C88.1809 8.792 88.6289 9.496 88.9329 10.312C89.2529 11.128 89.4129 12.024 89.4129 13C89.4129 14.248 89.1569 15.344 88.6449 16.288C88.1489 17.232 87.4529 17.968 86.5569 18.496C85.6609 19.024 84.6449 19.288 83.5089 19.288C83.0609 19.288 82.6289 19.232 82.2129 19.12C81.7969 19.008 81.4209 18.848 81.0849 18.64C80.7489 18.416 80.4529 18.152 80.1969 17.848H80.1009V24.16H75.9249V13.048C75.9249 11.688 76.2049 10.504 76.7649 9.496C77.3249 8.488 78.1089 7.712 79.1169 7.168C80.1409 6.608 81.3249 6.328 82.6689 6.328ZM82.6689 9.952C82.1889 9.952 81.7569 10.08 81.3729 10.336C80.9889 10.576 80.6929 10.912 80.4849 11.344C80.2769 11.76 80.1729 12.248 80.1729 12.808C80.1729 13.32 80.2769 13.792 80.4849 14.224C80.6929 14.64 80.9889 14.976 81.3729 15.232C81.7569 15.472 82.1889 15.592 82.6689 15.592C83.1809 15.592 83.6209 15.472 83.9889 15.232C84.3729 14.976 84.6609 14.64 84.8529 14.224C85.0609 13.792 85.1649 13.32 85.1649 12.808C85.1649 12.248 85.0609 11.76 84.8529 11.344C84.6609 10.912 84.3729 10.576 83.9889 10.336C83.6209 10.08 83.1809 9.952 82.6689 9.952Z" fill="#FF8A00"/>
</svg>
