<svg width="247" height="71" viewBox="0 0 247 71" fill="none" xmlns="http://www.w3.org/2000/svg">
<g filter="url(#filter0_d_15_20)">
<path d="M4.392 49V4.2H22.056C26.792 4.2 30.888 5.16 34.344 7.08C37.8427 9 40.5307 11.6453 42.408 15.016C44.328 18.3867 45.288 22.248 45.288 26.6C45.288 30.952 44.328 34.8133 42.408 38.184C40.5307 41.5547 37.8427 44.2 34.344 46.12C30.888 48.04 26.792 49 22.056 49H4.392ZM16.616 39.08H21.544C23.7627 39.08 25.7253 38.5893 27.432 37.608C29.1387 36.6267 30.4827 35.1973 31.464 33.32C32.4453 31.4 32.936 29.16 32.936 26.6C32.936 23.9973 32.4453 21.7787 31.464 19.944C30.4827 18.0667 29.1387 16.6373 27.432 15.656C25.7253 14.632 23.7627 14.12 21.544 14.12H16.616V39.08ZM50.0705 49V25.96C50.0705 22.888 50.9452 20.4773 52.6945 18.728C54.4865 16.936 56.9612 16.04 60.1185 16.04H70.2305V24.744H63.5105C62.8278 24.744 62.2732 24.9573 61.8465 25.384C61.4198 25.8107 61.2065 26.3653 61.2065 27.048V49H50.0705ZM74.2625 49V16.04H85.3985V49H74.2625ZM79.8305 12.456C78.1238 12.456 76.6518 11.8373 75.4145 10.6C74.2198 9.36267 73.6225 7.912 73.6225 6.248C73.6225 4.54133 74.2198 3.09067 75.4145 1.896C76.6518 0.658663 78.1238 0.0399971 79.8305 0.0399971C81.5372 0.0399971 82.9878 0.658663 84.1825 1.896C85.4198 3.09067 86.0385 4.54133 86.0385 6.248C86.0385 7.912 85.4198 9.36267 84.1825 10.6C82.9878 11.8373 81.5372 12.456 79.8305 12.456ZM91.825 49V30.056C91.825 27.24 92.5077 24.7227 93.873 22.504C95.281 20.2427 97.2437 18.472 99.761 17.192C102.321 15.912 105.308 15.272 108.721 15.272C112.134 15.272 115.078 15.912 117.553 17.192C120.028 18.472 121.926 20.2427 123.249 22.504C124.572 24.7227 125.233 27.24 125.233 30.056V49H114.097V30.568C114.097 29.5867 113.862 28.6907 113.393 27.88C112.924 27.0267 112.262 26.344 111.409 25.832C110.598 25.32 109.638 25.064 108.529 25.064C107.462 25.064 106.481 25.32 105.585 25.832C104.732 26.344 104.07 27.0267 103.601 27.88C103.132 28.6907 102.897 29.5867 102.897 30.568V49H91.825ZM154.743 49C150.903 48.9573 147.468 48.3813 144.439 47.272C141.41 46.1627 138.828 44.6053 136.695 42.6C134.562 40.5947 132.919 38.248 131.767 35.56C130.658 32.8293 130.103 29.8427 130.103 26.6C130.103 23.3573 130.658 20.392 131.767 17.704C132.919 14.9733 134.562 12.6053 136.695 10.6C138.828 8.59467 141.41 7.03733 144.439 5.928C147.468 4.776 150.903 4.2 154.743 4.2H161.591V14.12H155.127C153.122 14.12 151.33 14.44 149.751 15.08C148.215 15.72 146.914 16.616 145.847 17.768C144.78 18.8773 143.97 20.2 143.415 21.736C142.86 23.2293 142.583 24.8507 142.583 26.6C142.583 28.3493 142.86 29.992 143.415 31.528C143.97 33.0213 144.78 34.344 145.847 35.496C146.914 36.6053 148.215 37.48 149.751 38.12C151.33 38.76 153.122 39.08 155.127 39.08H161.591V49H154.743ZM183.471 49.832C180.058 49.832 177.071 49.1707 174.511 47.848C171.994 46.5253 170.031 44.7547 168.623 42.536C167.258 40.3173 166.575 37.8 166.575 34.984V16.04H177.647V34.472C177.647 35.4107 177.882 36.3067 178.351 37.16C178.82 38.0133 179.482 38.696 180.335 39.208C181.231 39.72 182.212 39.976 183.279 39.976C184.388 39.976 185.348 39.72 186.159 39.208C187.012 38.696 187.674 38.0133 188.143 37.16C188.612 36.3067 188.847 35.4107 188.847 34.472V16.04H199.983V34.984C199.983 37.8 199.322 40.3173 197.999 42.536C196.676 44.7547 194.778 46.5253 192.303 47.848C189.828 49.1707 186.884 49.832 183.471 49.832ZM224.117 15.208C226.89 15.208 229.386 15.6347 231.605 16.488C233.824 17.3413 235.701 18.5787 237.237 20.2C238.816 21.7787 240.01 23.656 240.821 25.832C241.674 28.008 242.101 30.3973 242.101 33C242.101 36.328 241.418 39.2507 240.053 41.768C238.73 44.2853 236.874 46.248 234.485 47.656C232.096 49.064 229.386 49.768 226.357 49.768C225.162 49.768 224.01 49.6187 222.901 49.32C221.792 49.0213 220.789 48.5947 219.893 48.04C218.997 47.4427 218.208 46.7387 217.525 45.928H217.269V62.76H206.133V33.128C206.133 29.5013 206.88 26.344 208.373 23.656C209.866 20.968 211.957 18.8987 214.645 17.448C217.376 15.9547 220.533 15.208 224.117 15.208ZM224.117 24.872C222.837 24.872 221.685 25.2133 220.661 25.896C219.637 26.536 218.848 27.432 218.293 28.584C217.738 29.6933 217.461 30.9947 217.461 32.488C217.461 33.8533 217.738 35.112 218.293 36.264C218.848 37.3733 219.637 38.2693 220.661 38.952C221.685 39.592 222.837 39.912 224.117 39.912C225.482 39.912 226.656 39.592 227.637 38.952C228.661 38.2693 229.429 37.3733 229.941 36.264C230.496 35.112 230.773 33.8533 230.773 32.488C230.773 30.9947 230.496 29.6933 229.941 28.584C229.429 27.432 228.661 26.536 227.637 25.896C226.656 25.2133 225.482 24.872 224.117 24.872Z" fill="white"/>
</g>
<defs>
<filter id="filter0_d_15_20" x="0.391998" y="0.0399933" width="245.709" height="70.72" filterUnits="userSpaceOnUse" color-interpolation-filters="sRGB">
<feFlood flood-opacity="0" result="BackgroundImageFix"/>
<feColorMatrix in="SourceAlpha" type="matrix" values="0 0 0 0 0 0 0 0 0 0 0 0 0 0 0 0 0 0 127 0" result="hardAlpha"/>
<feOffset dy="4"/>
<feGaussianBlur stdDeviation="2"/>
<feComposite in2="hardAlpha" operator="out"/>
<feColorMatrix type="matrix" values="0 0 0 0 0 0 0 0 0 0 0 0 0 0 0 0 0 0 0.25 0"/>
<feBlend mode="normal" in2="BackgroundImageFix" result="effect1_dropShadow_15_20"/>
<feBlend mode="normal" in="SourceGraphic" in2="effect1_dropShadow_15_20" result="shape"/>
</filter>
</defs>
</svg>
