<svg width="56" height="55" viewBox="0 0 56 55" fill="none" xmlns="http://www.w3.org/2000/svg">
<path d="M6.51075 7.90991C8.33781 3.41175 13.5283 1.2203 18.1061 3.01431C21.5975 4.3846 23.7178 7.67856 23.7195 11.159H31.5328L34.4369 8.30566C36.5953 6.1837 40.0978 6.18285 42.257 8.30566L49.9398 15.8529L48.767 17.0054L41.0842 9.45732C39.5724 7.97177 37.1216 7.97262 35.6098 9.45732L33.8785 11.159H35.8454C31.8811 20.3722 43.9332 37.0589 29.9125 39.8631C29.9218 39.8673 29.9329 39.8716 29.9244 39.875C25.6389 41.3596 25.8677 44.9011 27.2668 48.2348C28.749 51.7661 32.2989 52.4101 32.3319 52.4305C32.437 52.4915 32.4989 52.6847 32.4836 52.8855C32.4641 53.0855 32.3735 53.2338 32.2641 53.2338H18.1917C18.0832 53.2338 17.9909 53.0855 17.9739 52.8855C17.9561 52.6847 18.0214 52.4915 18.1256 52.4305C18.1595 52.4101 21.7069 51.7661 23.1899 48.2348C24.589 44.9002 24.8169 41.3596 20.5332 39.875C20.523 39.8716 20.5357 39.8673 20.545 39.8631C10.342 37.8233 13.9427 28.4321 15.1342 19.918C13.8907 19.9663 12.6506 19.7569 11.4919 19.3028C6.91498 17.5096 4.68539 12.4081 6.51075 7.90991V7.90991ZM25.2279 38.7707C42.9477 38.7707 30.4955 20.9857 34.1336 11.9437H33.0794L26.0304 18.8689C27.7287 18.3587 29.5134 17.9426 31.4633 17.9426C31.754 17.9426 32.0463 17.952 32.3455 17.9714C32.4074 21.1798 33.3073 24.8297 33.6276 28.0948C34.131 33.2413 33.1887 37.4344 25.2288 37.4344C18.6019 37.4344 16.8401 34.5268 16.7248 30.5846C16.6392 27.6237 17.4816 24.0789 17.8951 20.7383C18.0146 20.7434 18.1324 20.7451 18.2519 20.7451C19.6984 20.7451 21.1187 20.4078 22.5662 19.9697L30.7362 11.9428H23.6873C23.611 12.7682 23.4187 13.5962 23.0899 14.4055C21.9619 17.1859 19.5476 19.0816 16.7875 19.7036C15.6884 28.5796 11.8148 38.7707 25.2279 38.7707V38.7707ZM18.6341 26.1373L18.4137 25.9212C18.2273 27.1525 18.0748 28.338 18.0273 29.4422C18.101 29.4439 18.1765 29.4456 18.2527 29.4456C20.0357 29.4456 21.8696 28.8465 23.811 28.2118C26.0542 27.4796 28.5973 26.6483 31.4616 26.6483C31.6921 26.6483 31.9218 26.6534 32.1531 26.6644C32.0421 25.8703 31.9099 25.0568 31.7735 24.2119C31.5057 22.5569 31.2303 20.8569 31.1108 19.218C28.8024 19.2833 26.6813 19.9773 24.6288 20.6493C24.4246 20.7163 24.2229 20.779 24.0195 20.8442L18.6341 26.1373V26.1373ZM20.7611 21.7417C20.19 21.8561 19.6154 21.9493 19.0298 21.99C18.9451 22.5662 18.8527 23.1374 18.7612 23.7068L20.7611 21.7417ZM18.4375 17.9443C18.207 17.9147 18.0527 17.7147 17.8833 17.7062C17.8366 17.7037 17.468 16.9638 17.024 16.019C17.0265 16.2164 17.029 16.4139 17.0257 16.6147C17.3299 17.3418 17.5604 17.9248 17.5934 18.1079C17.6214 18.2757 17.3909 18.3731 17.3367 18.535C17.3121 18.6104 17.1451 18.6714 16.8952 18.7206L16.8528 19.1206C19.3586 18.4943 21.5374 16.7469 22.5695 14.2055C22.8617 13.4821 23.0478 12.7203 23.1221 11.9437H22.6229C22.5984 12.7225 22.5297 13.3555 22.4212 13.4368C22.2382 13.5741 21.9823 13.5394 21.8577 13.6495C21.7916 13.7063 18.8824 12.6538 17.1307 11.9437H16.6943C18.3299 12.5682 21.3145 13.725 21.7018 13.9877C21.8433 14.0868 21.7509 14.3148 21.8297 14.4648C22.0433 14.8648 18.8112 17.9892 18.4375 17.9443V17.9443ZM11.7013 18.7926C12.8168 19.2292 14.0124 19.4236 15.2088 19.3629C15.23 19.1951 15.2494 19.0273 15.2689 18.8604C13.9749 18.8977 12.5309 18.824 12.4038 18.6646C12.2597 18.4858 12.297 18.2392 12.1834 18.1172C12.0962 18.024 14.4376 12.0657 14.5808 12.2733C14.7037 12.4504 14.8791 12.3394 14.9935 12.2606C14.8859 11.8844 14.7639 11.5149 14.6113 11.159H15.9325C15.9291 11.0259 15.7876 10.8878 15.7706 10.8344C15.7706 10.8344 21.206 8.50735 21.8509 8.39888C22.0229 8.36837 22.1229 8.59294 22.289 8.64378C22.5187 8.71666 22.6255 9.9573 22.6339 11.159H23.161C23.1594 7.89466 21.1721 4.80832 17.8994 3.52446C13.6088 1.84232 8.74034 3.89564 7.02938 8.11329C5.31842 12.3293 7.40903 17.1121 11.7013 18.7926" fill="#CD7F32"/>
<path d="M12.2122 3.7897C12.3537 3.36006 16.9171 3.36938 17.1476 3.65835C17.2891 3.83716 17.2527 4.08546 17.3662 4.20664C17.4535 4.3007 15.1095 10.259 14.968 10.0514C14.8062 9.81578 14.5451 10.0937 14.4672 10.1175C14.4672 10.1175 12.0707 4.84136 11.9579 4.21427C11.9283 4.04817 12.1588 3.94987 12.2122 3.7897V3.7897ZM7.15557 8.83022C7.33946 8.69124 7.59369 8.72598 7.72165 8.61666C7.81656 8.53192 13.9528 10.8073 13.7401 10.9437C13.4969 11.1022 13.7842 11.3547 13.8104 11.431C13.8104 11.431 8.37247 13.7572 7.72927 13.8682C7.55555 13.897 7.45556 13.6724 7.29031 13.6199C6.8488 13.4835 6.85727 9.05224 7.15557 8.83022V8.83022ZM18.1383 4.33206C18.5501 4.12529 21.7712 7.26332 21.7237 7.62602C21.6932 7.85059 21.4898 8.00058 21.4788 8.16498C21.4703 8.29125 15.4773 10.8962 15.5273 10.6513C15.5832 10.3725 15.196 10.3929 15.1231 10.3556C15.1231 10.3556 17.2722 4.9778 17.6476 4.45748C17.7501 4.31765 17.9849 4.40748 18.1383 4.33206V4.33206ZM13.8681 11.7598C13.8113 12.0386 14.1994 12.0208 14.2723 12.0581C14.2723 12.0581 12.1223 17.4333 11.7461 17.9553C11.6461 18.0926 11.4114 18.0036 11.2588 18.0791C10.8461 18.285 7.62589 15.1461 7.67334 14.7843C7.70131 14.5605 7.90893 14.4114 7.9174 14.2453C7.92418 14.1207 13.9172 11.5166 13.8681 11.7598V11.7598ZM14.2231 10.3073C13.935 10.2505 13.9536 10.6276 13.9164 10.6988C13.9164 10.6988 8.3801 8.61243 7.84198 8.24634C7.70046 8.14973 7.79283 7.91923 7.71487 7.77008C7.50216 7.37009 10.7343 4.24477 11.1071 4.28969C11.3376 4.3185 11.4927 4.51934 11.6622 4.52951C11.7893 4.53629 14.4714 10.3547 14.2231 10.3073Z" fill="#CD7F32"/>
</svg>
