<svg width="319" height="308" viewBox="0 0 319 308" fill="none" xmlns="http://www.w3.org/2000/svg">
<g clip-path="url(#clip0_19_293)">
<path d="M227.999 308C277.724 308 318.034 304.28 318.034 299.692C318.034 295.104 277.724 291.384 227.999 291.384C178.273 291.384 137.963 295.104 137.963 299.692C137.963 304.28 178.273 308 227.999 308Z" fill="white"/>
<path opacity="0.1" d="M227.999 308C277.724 308 318.034 304.28 318.034 299.692C318.034 295.104 277.724 291.384 227.999 291.384C178.273 291.384 137.963 295.104 137.963 299.692C137.963 304.28 178.273 308 227.999 308Z" fill="#292A2E"/>
<path d="M78.5355 176.147H49.8362V184.497H78.5355V176.147Z" fill="#F4F4F4"/>
<path opacity="0.05" d="M57.4506 176.147H53.6902V184.497H57.4506V176.147Z" fill="#292A2E"/>
<path d="M74.8683 177.962H59.2321V182.91H74.8683V177.962Z" fill="white"/>
<path d="M101.427 177.236L74.7605 165.589L71.4182 173.242L98.0847 184.888L101.427 177.236Z" fill="#F4F4F4"/>
<path opacity="0.05" d="M101.427 177.236L74.7605 165.589L71.4182 173.242L98.0847 184.888L101.427 177.236Z" fill="#292A2E"/>
<path d="M97.8461 175.672L94.3519 174.146L91.0096 181.798L94.5038 183.324L97.8461 175.672Z" fill="white"/>
<path d="M91.9699 175.086L77.4414 168.741L75.4608 173.275L89.9893 179.621L91.9699 175.086Z" fill="white"/>
<path opacity="0.05" d="M101.477 281.93H94.2649V286.747H101.477V281.93Z" fill="#292A2E"/>
<path opacity="0.05" d="M27.7403 281.93H20.5282V286.747H27.7403V281.93Z" fill="#292A2E"/>
<path d="M108.088 184.889H13.9173V281.767H108.088V184.889Z" fill="#F4F4F4"/>
<path opacity="0.03" d="M108.088 184.889H13.9173V281.767H108.088V184.889Z" fill="#292A2E"/>
<path d="M125.539 184.889H31.3685V281.767H125.539V184.889Z" fill="#F4F4F4"/>
<path opacity="0.05" d="M118.928 281.93H111.716V286.747H118.928V281.93Z" fill="#292A2E"/>
<path opacity="0.05" d="M45.1919 281.93H37.9797V286.747H45.1919V281.93Z" fill="#292A2E"/>
<path opacity="0.7" d="M122.005 189.426H34.9038V208.039H122.005V189.426Z" fill="white"/>
<path opacity="0.7" d="M122.005 212.594H34.9038V231.206H122.005V212.594Z" fill="white"/>
<path opacity="0.7" d="M122.005 235.762H34.9038V254.374H122.005V235.762Z" fill="white"/>
<path opacity="0.05" d="M78.4543 201.337C79.8926 201.337 81.0585 200.171 81.0585 198.732C81.0585 197.294 79.8926 196.128 78.4543 196.128C77.016 196.128 75.85 197.294 75.85 198.732C75.85 200.171 77.016 201.337 78.4543 201.337Z" fill="#292A2E"/>
<path opacity="0.05" d="M78.4543 224.504C79.8926 224.504 81.0585 223.338 81.0585 221.9C81.0585 220.462 79.8926 219.296 78.4543 219.296C77.016 219.296 75.85 220.462 75.85 221.9C75.85 223.338 77.016 224.504 78.4543 224.504Z" fill="#292A2E"/>
<path opacity="0.05" d="M78.4543 247.673C79.8926 247.673 81.0585 246.507 81.0585 245.068C81.0585 243.63 79.8926 242.464 78.4543 242.464C77.016 242.464 75.85 243.63 75.85 245.068C75.85 246.507 77.016 247.673 78.4543 247.673Z" fill="#292A2E"/>
<path opacity="0.7" d="M122.005 259.452H34.9038V278.064H122.005V259.452Z" fill="white"/>
<path opacity="0.05" d="M78.4543 271.362C79.8926 271.362 81.0586 270.196 81.0586 268.758C81.0586 267.32 79.8926 266.154 78.4543 266.154C77.0161 266.154 75.8501 267.32 75.8501 268.758C75.8501 270.196 77.0161 271.362 78.4543 271.362Z" fill="#292A2E"/>
<path d="M47.3463 88.7327H103.03L103.03 16.2536H47.3463L47.3463 88.7327Z" fill="#F4F4F4"/>
<path d="M47.3467 16.2536H45.5402V88.7327H47.3467V16.2536Z" fill="#F4F4F4"/>
<path opacity="0.05" d="M47.3467 16.2536H45.5402V88.7327H47.3467V16.2536Z" fill="#292A2E"/>
<path opacity="0.05" d="M57.4903 75.5296H92.8868V29.4564L57.4903 29.4564L57.4903 75.5296Z" fill="#292A2E"/>
<path opacity="0.03" d="M57.4902 75.5296H59.3349L59.3349 29.4564H57.4902L57.4902 75.5296Z" fill="#292A2E"/>
<path d="M1.80611 152.515H47.3463L47.3463 106.556H1.80611L1.80611 152.515Z" fill="#F4F4F4"/>
<path opacity="0.05" d="M10.1019 144.143H39.0505L39.0505 114.928H10.1019L10.1019 144.143Z" fill="#292A2E"/>
<path d="M1.80643 106.557H0V152.515H1.80643V106.557Z" fill="#F4F4F4"/>
<path opacity="0.05" d="M1.80643 106.557H0V152.515H1.80643V106.557Z" fill="#292A2E"/>
<path opacity="0.03" d="M10.1019 144.143H11.9465L11.9465 114.928H10.1019L10.1019 144.143Z" fill="#292A2E"/>
<path d="M279.504 16.0811H163.301V132.284H279.504V16.0811Z" fill="#FFE600"/>
<path d="M163.301 16.0811H161.969V132.284H163.301V16.0811Z" fill="#F4F4F4"/>
<path opacity="0.05" d="M163.301 16.0811H161.969V132.284H163.301V16.0811Z" fill="#292A2E"/>
<path opacity="0.05" d="M191.452 96.1546V65.7518H216.356V83.4152H254.932V114.69H271.328V132.284H254.932H251.774H168.891V96.1546H191.452Z" fill="#292A2E"/>
<path opacity="0.34" d="M213.159 69.0528H195.023V72.3537H213.159V69.0528Z" fill="#FFFFFA"/>
<path opacity="0.34" d="M213.159 75.8933H195.023V79.1943H213.159V75.8933Z" fill="#FFFFFA"/>
<path opacity="0.34" d="M213.159 82.7339H195.023V86.0349H213.159V82.7339Z" fill="#FFFFFA"/>
<path opacity="0.34" d="M175.449 99.3588H172.107V102.66H175.449V99.3588Z" fill="#FFFFFA"/>
<path opacity="0.34" d="M175.449 106.199H172.107V109.5H175.449V106.199Z" fill="#FFFFFA"/>
<path opacity="0.34" d="M175.449 113.04H172.107V116.34H175.449V113.04Z" fill="#FFFFFA"/>
<path opacity="0.34" d="M181.633 99.3587H178.291V102.66H181.633V99.3587Z" fill="#FFFFFA"/>
<path opacity="0.34" d="M181.633 106.199H178.291V109.5H181.633V106.199Z" fill="#FFFFFA"/>
<path opacity="0.34" d="M181.633 113.04H178.291V116.34H181.633V113.04Z" fill="#FFFFFA"/>
<path opacity="0.34" d="M187.65 99.3587H184.307V102.66H187.65V99.3587Z" fill="#FFFFFA"/>
<path opacity="0.34" d="M187.65 106.199H184.307V109.5H187.65V106.199Z" fill="#FFFFFA"/>
<path opacity="0.34" d="M187.65 113.04H184.307V116.34H187.65V113.04Z" fill="#FFFFFA"/>
<path d="M163.301 73.5306H186.683V16.0807H188.617V73.5306H251.774V16.0807H253.707V73.5306H279.504V75.4643H253.707V132.284H251.774V75.4643H188.617V132.284H186.683V75.4643H163.301V73.5306Z" fill="white"/>
<path d="M284.133 132.144H158.672V136.008H284.133V132.144Z" fill="#F4F4F4"/>
<path opacity="0.1" d="M284.133 132.144H158.672V136.008H284.133V132.144Z" fill="#292A2E"/>
<path opacity="0.1" d="M158.672 132.144H156.86V136.008H158.672V132.144Z" fill="#292A2E"/>
<path opacity="0.1" d="M158.672 132.144H156.86V136.008H158.672V132.144Z" fill="#292A2E"/>
<path d="M259.578 152.051C241.788 152.051 227.366 156.904 227.366 162.891V175.797H291.79V162.891C291.79 156.904 277.368 152.051 259.578 152.051Z" fill="#FF8A00"/>
<path opacity="0.49" d="M259.578 152.051C241.788 152.051 227.366 156.904 227.366 162.891V175.797H291.79V162.891C291.79 156.904 277.368 152.051 259.578 152.051Z" fill="white"/>
<path opacity="0.49" d="M283.015 162.893V175.796H227.365V162.893C227.365 157.405 239.477 152.871 255.19 152.154C270.904 152.871 283.015 157.405 283.015 162.893Z" fill="white"/>
<path d="M291.79 301.194H292.871L291.79 174.652L290.718 175.733L291.482 264.127L253.319 264.775L252.549 175.724L251.478 175.733L252.248 264.793L229.21 265.185L228.437 175.724L227.365 174.661L228.446 301.194L229.509 301.186L229.219 266.257L252.257 265.865L252.549 301.194L253.621 301.186L253.329 265.847L291.491 265.198L291.79 301.194Z" fill="#292A2E"/>
<path d="M194.627 282.249C194.627 282.249 192.711 292.179 183.414 292.733C174.116 293.286 176.132 300.693 176.132 300.693H211.662V282.942L194.627 282.249Z" fill="#FF8A00"/>
<path d="M214.898 252.382C214.898 252.382 217.563 262.138 209.464 266.738C201.366 271.339 206.445 277.095 206.445 277.095L238.326 261.41L230.49 245.482L214.898 252.382Z" fill="#FF8A00"/>
<path d="M211.525 258.829L187.503 168.19C185.681 158.177 188.424 153.837 192.651 149.62C200.077 142.213 230.851 126.447 230.851 126.447L267.769 126.346C277.559 126.346 287.181 135.999 287.181 145.787C287.181 155.576 277.23 163.878 267.441 163.878L221.979 168.416L234.302 251.408L211.525 258.829Z" fill="#262626"/>
<path d="M234.302 251.407L229.451 218.734L204.872 233.727L211.525 258.829L234.302 251.407Z" fill="#0C0C0C"/>
<path d="M239.873 144.788C239.873 144.788 224.354 148.247 208.983 163.617C199.664 172.936 200.429 189.801 201.827 222.236L217.092 199.688L233.836 169.489L239.873 144.788Z" fill="#0C0C0C"/>
<path d="M293.608 126.336L268.536 126.218L268.527 126.548H260.935C260.935 126.548 241.917 144.046 226.608 155.073C215.471 163.093 208.677 170.74 208.09 179.074C206.656 199.389 190.494 286.033 190.494 286.033L214.818 289.716L236.165 186.171C236.165 186.171 269.542 170.782 277.263 165.428C284.533 160.386 289.668 158.436 292.074 152.934C296.229 143.429 293.608 126.336 293.608 126.336Z" fill="#262626"/>
<path d="M265.48 132.651L224.807 133.19L247.623 146.816L266.608 137.013C267.065 136.767 267.427 136.375 267.635 135.9C267.843 135.424 267.886 134.892 267.756 134.389C267.626 133.887 267.331 133.442 266.918 133.127C266.506 132.812 265.999 132.644 265.48 132.651V132.651Z" fill="#292A2E"/>
<path opacity="0.2" d="M265.48 132.651L224.807 133.19L247.623 146.816L266.608 137.013C267.065 136.767 267.427 136.375 267.635 135.9C267.843 135.424 267.886 134.892 267.756 134.389C267.626 133.887 267.331 133.442 266.918 133.127C266.506 132.812 265.999 132.644 265.48 132.651V132.651Z" fill="white"/>
<path d="M225.04 59.6826L213.535 96.9584L190.492 127.128L203.953 142.58L231.367 111.983C232.63 110.984 233.618 109.681 234.238 108.195L234.665 107.162L250.5 68.8487L225.04 59.6826Z" fill="#FF8A00"/>
<path d="M242.762 20.1151C242.762 20.1151 238.127 16.6137 236.978 8.56055C236.089 2.32486 241.841 6.36468 241.841 6.36468C241.841 6.36468 241.244 1.86825 244.521 2.3145C247.797 2.76075 249.63 7.48405 249.63 7.48405" fill="#0C0C0C"/>
<path d="M261.452 2.84076C261.452 2.84076 277.707 4.58323 271.831 26.6091L270.393 26.7056L267.473 26.9014" fill="#0C0C0C"/>
<path d="M245.485 49.6118C245.556 49.6025 246.349 62.7599 261.634 61.6141C272.217 60.8213 275.991 49.5932 276.233 49.5932C275.092 49.3506 273.682 48.9826 273.122 48.8565C271.9 48.5731 270.794 47.9245 269.95 46.997C269.107 46.0695 268.565 44.9071 268.398 43.6645C268.089 41.7994 268.613 32.2571 268.452 30.3699L252.209 33.9956C252.437 37.9815 254.025 47.2212 248.458 48.8565C247.531 49.1266 246.532 49.3767 245.485 49.6118Z" fill="#E98862"/>
<path opacity="0.52" d="M251.982 45.0804C252.236 44.2603 252.4 43.4148 252.47 42.559C252.649 40.6063 252.613 38.6399 252.363 36.6949C255.665 36.25 258.776 34.8877 261.342 32.763C261.644 33.877 263.303 38.7447 262.843 39.8015C261.975 41.8023 257.895 45.0804 251.982 45.0804Z" fill="#0C0C0C"/>
<path d="M255.334 42.4761C261.743 41.9012 269.414 37.8521 269.524 29.1526L269.624 21.3031C269.735 12.6039 265.255 5.4936 257.064 5.38927C248.874 5.2853 242.662 12.2595 242.551 20.959L242.507 24.434C242.512 25.6274 242.599 26.8191 242.767 28.0007C243.187 31.127 243.839 35.8799 245.96 39.0951C247.964 42.1306 251.24 42.843 255.334 42.4761Z" fill="#E98862"/>
<path opacity="0.52" d="M252.361 34.5244C251.039 34.5843 249.72 34.3326 248.513 33.7895C248.464 33.7672 248.425 33.7265 248.405 33.6761C248.386 33.6257 248.387 33.5696 248.408 33.5198C248.429 33.4701 248.469 33.4306 248.519 33.4099C248.569 33.3891 248.625 33.3888 248.675 33.4089C251.276 34.5183 253.639 34.3561 255.506 32.9395C255.543 32.9097 255.582 32.8819 255.623 32.8562C255.67 32.8341 255.723 32.8305 255.773 32.846C255.822 32.8616 255.864 32.8952 255.89 32.9402C255.916 32.9851 255.924 33.0382 255.913 33.0888C255.901 33.1395 255.871 33.184 255.829 33.2135C255.814 33.2228 255.789 33.2417 255.757 33.2675C254.776 34.0152 253.593 34.4529 252.361 34.5244V34.5244Z" fill="#0C0C0C"/>
<path opacity="0.52" d="M252.422 36.4841C252.183 36.4988 251.943 36.4931 251.705 36.467C251.678 36.4641 251.652 36.4559 251.628 36.443C251.604 36.43 251.583 36.4125 251.566 36.3914C251.549 36.3703 251.536 36.346 251.528 36.32C251.521 36.294 251.518 36.2667 251.521 36.2397C251.524 36.2127 251.532 36.1866 251.545 36.1628C251.558 36.1389 251.576 36.1179 251.597 36.1008C251.618 36.0838 251.642 36.0711 251.668 36.0634C251.694 36.0557 251.721 36.0532 251.748 36.0561C253.18 36.2079 253.863 35.5523 253.892 35.5241C253.931 35.4853 253.983 35.4634 254.038 35.4634C254.093 35.4633 254.146 35.485 254.184 35.5237C254.223 35.5624 254.245 35.615 254.245 35.6698C254.245 35.7246 254.223 35.7772 254.185 35.816C253.692 36.2357 253.069 36.4718 252.422 36.4841Z" fill="#0C0C0C"/>
<path d="M245.256 26.1068C245.813 26.1068 246.265 25.655 246.265 25.0978C246.265 24.5405 245.813 24.0888 245.256 24.0888C244.699 24.0888 244.247 24.5405 244.247 25.0978C244.247 25.655 244.699 26.1068 245.256 26.1068Z" fill="#0C0C0C"/>
<path d="M255.113 25.4883C255.67 25.4883 256.122 25.0366 256.122 24.4793C256.122 23.9221 255.67 23.4704 255.113 23.4704C254.556 23.4704 254.104 23.9221 254.104 24.4793C254.104 25.0366 254.556 25.4883 255.113 25.4883Z" fill="#0C0C0C"/>
<path d="M268.982 31.7983C271.471 31.8301 273.523 29.1926 273.555 26.7034C273.588 24.2142 271.586 22.8158 269.097 22.7844L267.793 24.4358L266.843 31.7712L268.982 31.7983Z" fill="#E98862"/>
<path d="M266.505 27.7967C266.505 27.7967 265.665 15.4872 261.932 14.7269C259.446 14.2206 253.418 17.747 247.834 16.682C245.391 16.2175 243.072 16.8206 242.836 17.9746C242.742 18.4316 241.221 11.865 245.046 6.88307C248.092 2.91721 258.059 1.79534 262.594 3.09586C275.15 6.698 269.609 23.3242 269.609 23.3242L269.05 27.5681L266.505 27.7967Z" fill="#0C0C0C"/>
<g opacity="0.52">
<path d="M250.856 31.6196C250.851 31.62 250.846 31.62 250.84 31.6196C250.038 31.6118 248.694 31.5085 248.699 30.9086C248.705 30.4113 250.119 25.0581 250.281 24.4493C250.295 24.3969 250.329 24.3522 250.376 24.3249C250.423 24.2977 250.478 24.2902 250.531 24.3041C250.583 24.3179 250.628 24.3521 250.655 24.3989C250.682 24.4458 250.69 24.5016 250.676 24.554C250.047 26.9249 249.111 30.5749 249.108 30.9136C249.185 31.0566 250.014 31.2038 250.844 31.2123C250.896 31.2135 250.946 31.2346 250.984 31.2715C251.021 31.3084 251.042 31.3582 251.044 31.4106C251.045 31.4629 251.027 31.5139 250.992 31.553C250.957 31.592 250.908 31.6161 250.856 31.6204V31.6196Z" fill="#0C0C0C"/>
</g>
<path d="M248.12 19.627C247.277 19.395 246.386 19.395 245.543 19.627C245.129 19.7384 244.734 19.9113 244.372 20.1401C244.013 20.3641 243.684 20.6325 243.393 20.939C243.339 20.9936 243.309 21.0668 243.307 21.1434C243.306 21.2199 243.335 21.294 243.387 21.3502C243.439 21.4063 243.511 21.4402 243.587 21.4448C243.664 21.4494 243.739 21.4244 243.797 21.3749L243.816 21.3591C244.085 21.1093 244.385 20.8946 244.709 20.72C245.026 20.5462 245.368 20.4214 245.722 20.3498C246.42 20.2035 247.145 20.244 247.822 20.4674L247.85 20.4774C247.961 20.5131 248.082 20.5042 248.186 20.4525C248.29 20.4008 248.371 20.3105 248.409 20.2007C248.448 20.0908 248.443 19.9702 248.394 19.8644C248.345 19.7586 248.257 19.676 248.148 19.6342L248.12 19.627Z" fill="#0C0C0C"/>
<path d="M254.089 20.1333C254.73 19.8216 255.443 19.6849 256.154 19.7371C256.515 19.7605 256.871 19.8386 257.208 19.9686C257.551 20.0989 257.877 20.2717 258.177 20.4831L258.197 20.496C258.261 20.5375 258.339 20.5526 258.414 20.538C258.49 20.5234 258.557 20.4802 258.601 20.4176C258.645 20.355 258.663 20.2777 258.652 20.2018C258.641 20.1259 258.601 20.0574 258.54 20.0104C258.21 19.7455 257.849 19.5233 257.463 19.3491C257.073 19.1707 256.659 19.052 256.234 18.9968C255.367 18.8787 254.485 18.9969 253.681 19.3387C253.627 19.3622 253.578 19.396 253.537 19.4383C253.496 19.4807 253.464 19.5306 253.442 19.5854C253.421 19.6401 253.41 19.6986 253.411 19.7574C253.412 19.8162 253.425 19.8743 253.448 19.9282C253.496 20.0372 253.584 20.1229 253.695 20.1664C253.75 20.188 253.808 20.1986 253.867 20.1976C253.926 20.1965 253.984 20.1839 254.038 20.1605L254.063 20.1487L254.089 20.1333Z" fill="#0C0C0C"/>
<path d="M253.68 6.93913C254.247 4.22727 253.213 1.7168 251.37 1.33185C249.528 0.946907 247.575 2.83325 247.008 5.54511C246.441 8.25697 247.476 10.7674 249.318 11.1524C251.161 11.5373 253.114 9.65098 253.68 6.93913Z" fill="#0C0C0C"/>
<path d="M226.492 78.5311C226.974 84.1877 230.386 119.48 230.851 126.447H293.581C293.941 120.163 295.559 92.6839 296.926 80.3933C298.231 68.6665 300.06 63.3301 298.557 59.6862C295.907 53.2586 287.47 50.3886 281.758 49.615C278.269 49.1427 273.023 48.8044 273.023 48.8044C273.023 48.8044 272.578 57.7911 261.986 58.2913C247.566 58.9702 248.529 48.8044 248.457 48.8044C246.121 48.8044 233.406 50.5032 230.226 52.5755C225.735 55.5024 224.408 59.4914 224.355 63.1561C224.295 67.3767 225.947 72.1147 226.492 78.5311Z" fill="#FF8A00"/>
<path d="M229.673 112.54C229.628 112.54 229.585 112.523 229.552 112.493C229.519 112.463 229.498 112.421 229.494 112.377L227.117 85.1945C227.113 85.1473 227.128 85.1004 227.158 85.0641C227.189 85.0278 227.232 85.005 227.28 85.0009C227.303 84.9985 227.327 85.0008 227.349 85.0077C227.372 85.0146 227.393 85.026 227.411 85.0412C227.429 85.0563 227.444 85.075 227.454 85.096C227.465 85.117 227.472 85.1399 227.473 85.1634L229.85 112.346C229.854 112.393 229.839 112.44 229.809 112.476C229.778 112.512 229.735 112.535 229.688 112.539C229.683 112.539 229.678 112.54 229.673 112.54V112.54Z" fill="#0C0C0C"/>
<path d="M234.221 128.329L242.835 121.341L241.385 121.75C240.915 121.873 240.415 121.813 239.987 121.582C239.56 121.35 239.236 120.965 239.081 120.504C239.009 120.263 238.987 120.011 239.017 119.761C239.046 119.512 239.126 119.271 239.251 119.054C239.377 118.836 239.545 118.646 239.747 118.496C239.948 118.346 240.177 118.238 240.422 118.179L258.517 113.778L260.074 119.542C260.557 121.332 260.496 123.226 259.896 124.98C259.297 126.735 258.187 128.271 256.709 129.391L250.004 134.45C249.661 134.72 249.235 134.862 248.799 134.854C248.363 134.846 247.943 134.687 247.61 134.405C247.315 134.143 247.111 133.794 247.028 133.408C246.945 133.023 246.988 132.621 247.15 132.261C247.121 132.252 247.095 132.236 247.075 132.214C247.057 132.192 247.044 132.166 247.038 132.139C247.033 132.111 247.034 132.083 247.042 132.056L245.807 132.991C245.425 133.292 244.944 133.438 244.459 133.397C243.974 133.357 243.523 133.134 243.196 132.774C242.916 132.442 242.761 132.021 242.76 131.587C242.759 131.152 242.911 130.73 243.19 130.397C243.17 130.394 243.151 130.387 243.134 130.378L242.627 130.762C242.284 131.031 241.858 131.174 241.422 131.166C240.986 131.157 240.566 130.999 240.233 130.716C239.875 130.399 239.653 129.956 239.615 129.479C239.577 129.002 239.725 128.529 240.028 128.159C240.021 128.148 240.015 128.137 240.01 128.125L236.423 131.036C236.245 131.18 236.041 131.288 235.821 131.353C235.602 131.418 235.371 131.439 235.144 131.416C234.916 131.392 234.695 131.324 234.494 131.214C234.292 131.105 234.115 130.958 233.97 130.78C233.826 130.602 233.718 130.398 233.653 130.178C233.588 129.959 233.566 129.728 233.59 129.501C233.614 129.273 233.682 129.052 233.791 128.851C233.9 128.649 234.048 128.472 234.226 128.327L234.221 128.329Z" fill="#E98862"/>
<path opacity="0.2" d="M240.224 128.229C240.243 128.223 240.261 128.213 240.277 128.2L243.728 125.333C243.746 125.318 243.76 125.3 243.771 125.28C243.781 125.26 243.788 125.238 243.79 125.215C243.792 125.192 243.789 125.169 243.783 125.147C243.776 125.126 243.765 125.105 243.75 125.088C243.736 125.07 243.718 125.056 243.698 125.045C243.677 125.035 243.655 125.028 243.633 125.026C243.61 125.024 243.587 125.026 243.565 125.033C243.543 125.04 243.523 125.051 243.506 125.066L240.055 127.932C240.023 127.959 240.002 127.995 239.995 128.035C239.988 128.075 239.995 128.117 240.015 128.152C240.035 128.188 240.067 128.215 240.106 128.229C240.144 128.243 240.186 128.243 240.224 128.229Z" fill="#0A0A0A"/>
<path opacity="0.2" d="M243.266 130.395C243.285 130.388 243.302 130.378 243.317 130.366L246.047 128.134C246.083 128.104 246.106 128.062 246.11 128.017C246.115 127.971 246.101 127.925 246.072 127.889C246.043 127.854 246.001 127.831 245.955 127.826C245.909 127.822 245.863 127.835 245.827 127.865L243.097 130.097C243.066 130.123 243.044 130.159 243.036 130.199C243.029 130.24 243.036 130.281 243.056 130.317C243.076 130.353 243.108 130.38 243.147 130.394C243.185 130.409 243.228 130.409 243.266 130.395V130.395Z" fill="#0A0A0A"/>
<path opacity="0.2" d="M247.262 132.267C247.282 132.259 247.3 132.249 247.317 132.235L248.581 131.151C248.598 131.136 248.613 131.118 248.623 131.097C248.633 131.077 248.639 131.055 248.641 131.032C248.643 131.009 248.64 130.987 248.633 130.965C248.626 130.943 248.615 130.923 248.6 130.906C248.585 130.889 248.567 130.874 248.547 130.864C248.526 130.854 248.504 130.848 248.481 130.846C248.459 130.844 248.436 130.847 248.414 130.854C248.393 130.861 248.373 130.872 248.355 130.887L247.09 131.972C247.06 131.998 247.039 132.034 247.033 132.074C247.026 132.114 247.033 132.155 247.054 132.19C247.074 132.225 247.106 132.252 247.144 132.266C247.182 132.28 247.224 132.28 247.262 132.267V132.267Z" fill="#0A0A0A"/>
<path d="M310.349 111.212L310.283 110.919L298.833 60.2767L276.181 65.3973L285.118 104.927L249.318 113.724L253.724 133.924L301.431 124.824C301.538 124.803 301.697 124.771 301.806 124.747C303.255 124.419 304.626 123.809 305.84 122.951C307.054 122.094 308.087 121.006 308.88 119.749C309.674 118.492 310.212 117.091 310.464 115.627C310.716 114.162 310.677 112.662 310.349 111.212V111.212Z" fill="#FF8A00"/>
<path d="M249.143 113.762C249.134 113.717 249.142 113.669 249.167 113.63C249.192 113.591 249.231 113.563 249.276 113.552L284.915 104.798L279.121 79.2039C279.114 79.1806 279.112 79.1562 279.116 79.1322C279.119 79.1082 279.127 79.0851 279.139 79.0643C279.152 79.0435 279.168 79.0255 279.188 79.0112C279.207 78.997 279.229 78.9869 279.253 78.9815C279.277 78.9762 279.301 78.9757 279.325 78.9801C279.349 78.9844 279.371 78.9936 279.392 79.007C279.412 79.0205 279.429 79.0378 279.442 79.0581C279.455 79.0784 279.464 79.1011 279.469 79.125L285.302 104.891C285.313 104.936 285.305 104.985 285.281 105.025C285.256 105.065 285.217 105.094 285.171 105.105L249.528 113.858C249.528 113.858 249.767 114.9 249.835 115.252C249.84 115.298 249.827 115.344 249.798 115.38C249.77 115.416 249.728 115.439 249.682 115.444C249.636 115.45 249.59 115.437 249.554 115.408C249.518 115.379 249.495 115.338 249.49 115.292C249.407 114.906 249.143 113.762 249.143 113.762Z" fill="#0C0C0C"/>
<path d="M250.54 141.97L236.776 99.6588C236.534 98.9153 236.063 98.2673 235.431 97.8078C234.798 97.3484 234.036 97.1009 233.254 97.101H177.177C176.593 97.101 176.017 97.2393 175.496 97.5047C174.975 97.7702 174.524 98.1551 174.181 98.6281C173.837 99.1011 173.611 99.6486 173.519 100.226C173.428 100.803 173.475 101.394 173.656 101.95L187.42 144.261C187.662 145.004 188.133 145.652 188.766 146.112C189.398 146.571 190.16 146.819 190.942 146.819H247.019C247.603 146.819 248.179 146.68 248.7 146.415C249.221 146.149 249.672 145.764 250.015 145.291C250.359 144.818 250.585 144.271 250.676 143.694C250.768 143.116 250.721 142.525 250.54 141.97V141.97Z" fill="#292A2E"/>
<path opacity="0.2" d="M250.54 141.97L236.776 99.6588C236.534 98.9153 236.063 98.2673 235.431 97.8078C234.798 97.3484 234.036 97.1009 233.254 97.101H177.177C176.593 97.101 176.017 97.2393 175.496 97.5047C174.975 97.7702 174.524 98.1551 174.181 98.6281C173.837 99.1011 173.611 99.6486 173.519 100.226C173.428 100.803 173.475 101.394 173.656 101.95L187.42 144.261C187.662 145.004 188.133 145.652 188.766 146.112C189.398 146.571 190.16 146.819 190.942 146.819H247.019C247.603 146.819 248.179 146.68 248.7 146.415C249.221 146.149 249.672 145.764 250.015 145.291C250.359 144.818 250.585 144.271 250.676 143.694C250.768 143.116 250.721 142.525 250.54 141.97V141.97Z" fill="white"/>
<path d="M210.483 127.841C213.731 127.841 216.364 125.208 216.364 121.96C216.364 118.712 213.731 116.079 210.483 116.079C207.235 116.079 204.601 118.712 204.601 121.96C204.601 125.208 207.235 127.841 210.483 127.841Z" fill="white"/>
<path d="M155.117 4.4711H43.8185C38.6623 4.4711 34.4823 8.65106 34.4823 13.8073V148.922C34.4823 154.078 38.6623 158.258 43.8185 158.258H155.117C160.274 158.258 164.453 154.078 164.453 148.922V13.8073C164.453 8.65106 160.274 4.4711 155.117 4.4711Z" fill="#292A2E"/>
<path d="M159.231 0.35733H47.9322C42.776 0.35733 38.596 4.53729 38.596 9.69353V144.808C38.596 149.964 42.776 154.144 47.9322 154.144H159.231C164.387 154.144 168.567 149.964 168.567 144.808V9.69353C168.567 4.53729 164.387 0.35733 159.231 0.35733Z" fill="white"/>
<path d="M159.231 154.501H47.9323C45.3622 154.498 42.8982 153.476 41.0809 151.659C39.2637 149.842 38.2415 147.378 38.2388 144.807V9.69352C38.2416 7.12352 39.2638 4.65959 41.0811 2.84232C42.8983 1.02505 45.3623 0.00286758 47.9323 3.05176e-05L159.231 3.05176e-05C161.801 0.00296214 164.265 1.02519 166.082 2.84245C167.899 4.6597 168.921 7.12358 168.924 9.69352V144.807C168.921 147.377 167.899 149.841 166.082 151.659C164.265 153.476 161.801 154.498 159.231 154.501V154.501ZM47.9323 0.7146C45.5517 0.717248 43.2694 1.66409 41.5861 3.34739C39.9028 5.03069 38.956 7.31297 38.9533 9.69352V144.807C38.956 147.188 39.9028 149.47 41.5861 151.154C43.2694 152.837 45.5517 153.784 47.9323 153.786H159.231C161.612 153.784 163.894 152.837 165.577 151.154C167.26 149.47 168.207 147.188 168.21 144.807V9.69352C168.207 7.31301 167.26 5.03072 165.577 3.34741C163.894 1.6641 161.612 0.717248 159.231 0.7146H47.9323Z" fill="#292A2E"/>
<path d="M37.0968 173.477C49.8986 173.477 60.2764 163.1 60.2764 150.298C60.2764 137.496 49.8986 127.118 37.0968 127.118C24.2951 127.118 13.9173 137.496 13.9173 150.298C13.9173 163.1 24.2951 173.477 37.0968 173.477Z" fill="#FF0A00"/>
<path d="M32.285 147.273C31.9798 147.273 31.6872 147.152 31.4713 146.936C31.2555 146.72 31.1343 146.427 31.1342 146.122V140.552C31.1342 137.472 33.8091 134.965 37.0969 134.965C40.3846 134.965 43.0596 137.472 43.0596 140.552V145.74C43.0623 145.893 43.0345 146.045 42.9779 146.187C42.9213 146.329 42.837 146.458 42.7299 146.567C42.6227 146.676 42.495 146.762 42.354 146.822C42.2131 146.881 42.0618 146.911 41.909 146.911C41.7561 146.911 41.6048 146.881 41.4639 146.822C41.3229 146.762 41.1952 146.676 41.0881 146.567C40.981 146.458 40.8966 146.329 40.84 146.187C40.7834 146.045 40.7556 145.893 40.7583 145.74V140.552C40.7583 138.74 39.1148 137.267 37.0969 137.267C35.0789 137.267 33.4354 138.74 33.4354 140.552V146.123C33.4352 146.428 33.3139 146.72 33.0982 146.936C32.8825 147.152 32.59 147.273 32.285 147.273V147.273Z" fill="white"/>
<path d="M44.4376 145.159H29.7561C28.8999 145.159 28.2058 145.853 28.2058 146.71V160.539C28.2058 161.395 28.8999 162.089 29.7561 162.089H44.4376C45.2938 162.089 45.9879 161.395 45.9879 160.539V146.71C45.9879 145.853 45.2938 145.159 44.4376 145.159Z" fill="white"/>
<path d="M35.6352 152.255C35.6351 152.529 35.7121 152.798 35.8574 153.031C36.0027 153.263 36.2104 153.45 36.457 153.571V155.816C36.457 155.986 36.5242 156.148 36.6439 156.268C36.7635 156.387 36.9258 156.455 37.0951 156.455C37.2643 156.455 37.4266 156.387 37.5463 156.268C37.666 156.148 37.7332 155.986 37.7332 155.816V153.571C37.968 153.457 38.168 153.282 38.3125 153.065C38.4569 152.847 38.5405 152.595 38.5546 152.334C38.5687 152.074 38.5127 151.814 38.3925 151.582C38.2723 151.351 38.0923 151.156 37.8711 151.017C37.6499 150.878 37.3957 150.802 37.1348 150.794C36.8738 150.787 36.6158 150.85 36.3874 150.977C36.1591 151.103 35.9687 151.288 35.8361 151.513C35.7035 151.738 35.6335 151.994 35.6334 152.255H35.6352Z" fill="#292A2E"/>
<path d="M149.512 77.0924H57.6515C55.4586 77.0924 53.681 78.87 53.681 81.0629V93.9408C53.681 96.1337 55.4586 97.9114 57.6515 97.9114H149.512C151.705 97.9114 153.482 96.1337 153.482 93.9408V81.0629C153.482 78.87 151.705 77.0924 149.512 77.0924Z" fill="white"/>
<path d="M149.512 98.2683H57.6515C56.5041 98.267 55.4041 97.8106 54.5928 96.9992C53.7814 96.1879 53.3251 95.0879 53.3237 93.9405V81.0629C53.3251 79.9155 53.7814 78.8154 54.5928 78.004C55.4041 77.1926 56.5041 76.7362 57.6515 76.7347H149.512C150.659 76.7361 151.759 77.1925 152.571 78.0039C153.382 78.8153 153.838 79.9154 153.84 81.0629V93.9405C153.838 95.0879 153.382 96.188 152.571 96.9994C151.759 97.8107 150.659 98.267 149.512 98.2683ZM57.6515 77.4493C56.6935 77.4504 55.775 77.8314 55.0976 78.5089C54.4202 79.1863 54.0392 80.1049 54.0383 81.0629V93.9405C54.0393 94.8985 54.4204 95.8169 55.0977 96.4943C55.7751 97.1717 56.6936 97.5527 57.6515 97.5537H149.512C150.47 97.5527 151.388 97.1717 152.065 96.4943C152.743 95.8169 153.124 94.8985 153.125 93.9405V81.0629C153.124 80.1048 152.743 79.1863 152.066 78.5088C151.388 77.8314 150.47 77.4504 149.512 77.4493H57.6515Z" fill="#292A2E"/>
<path d="M149.512 106.845H57.6515C55.4586 106.845 53.681 108.623 53.681 110.815V123.693C53.681 125.886 55.4586 127.664 57.6515 127.664H149.512C151.705 127.664 153.482 125.886 153.482 123.693V110.815C153.482 108.623 151.705 106.845 149.512 106.845Z" fill="white"/>
<path d="M149.512 128.021H57.6515C56.5039 128.019 55.4038 127.563 54.5924 126.751C53.781 125.94 53.3248 124.84 53.3237 123.692V110.815C53.3251 109.668 53.7814 108.568 54.5928 107.757C55.4041 106.945 56.5041 106.489 57.6515 106.488H149.512C150.659 106.489 151.759 106.945 152.571 107.757C153.382 108.568 153.838 109.668 153.84 110.815V123.692C153.839 124.84 153.382 125.94 152.571 126.752C151.759 127.563 150.659 128.02 149.512 128.021ZM57.6515 107.202C56.6936 107.203 55.7751 107.584 55.0977 108.262C54.4204 108.939 54.0393 109.857 54.0383 110.815V123.692C54.0393 124.65 54.4204 125.568 55.0977 126.246C55.7751 126.923 56.6936 127.304 57.6515 127.305H149.512C150.47 127.304 151.388 126.923 152.066 126.246C152.743 125.568 153.124 124.65 153.125 123.692V110.815C153.124 109.857 152.743 108.939 152.066 108.261C151.388 107.584 150.47 107.203 149.512 107.202H57.6515Z" fill="#292A2E"/>
<path d="M103.582 61.6066C115.361 61.6066 124.909 52.0578 124.909 40.2789C124.909 28.4999 115.361 18.9511 103.582 18.9511C91.8025 18.9511 82.2538 28.4999 82.2538 40.2789C82.2538 52.0578 91.8025 61.6066 103.582 61.6066Z" fill="white"/>
<path d="M103.582 61.9639C99.2926 61.9639 95.1 60.6921 91.534 58.3093C87.9679 55.9265 85.1885 52.5398 83.5472 48.5774C81.9059 44.6149 81.4764 40.2548 82.3132 36.0483C83.1499 31.8418 85.2152 27.9779 88.2479 24.9452C91.2806 21.9125 95.1445 19.8472 99.351 19.0105C103.557 18.1738 107.918 18.6032 111.88 20.2445C115.842 21.8858 119.229 24.6652 121.612 28.2313C123.995 31.7974 125.267 35.99 125.267 40.2788C125.26 46.0281 122.973 51.54 118.908 55.6054C114.843 59.6707 109.331 61.9574 103.582 61.9639V61.9639ZM103.582 19.3084C99.434 19.3084 95.3795 20.5383 91.931 22.8425C88.4824 25.1468 85.7945 28.422 84.2073 32.2538C82.6201 36.0857 82.2049 40.3021 83.014 44.37C83.8232 48.4379 85.8204 52.1744 88.7532 55.1072C91.6859 58.04 95.4225 60.0372 99.4904 60.8464C103.558 61.6555 107.775 61.2402 111.607 59.653C115.438 58.0658 118.714 55.378 121.018 51.9294C123.322 48.4808 124.552 44.4264 124.552 40.2788C124.546 34.7191 122.334 29.3888 118.403 25.4574C114.472 21.526 109.141 19.3146 103.582 19.3084V19.3084Z" fill="#292A2E"/>
<path opacity="0.5" d="M124.435 40.2788C124.442 45.2153 122.69 49.9927 119.494 53.7552C117.526 51.4606 115.085 49.6189 112.338 48.3564C109.591 47.0938 106.603 46.4405 103.58 46.441C100.557 46.4415 97.5697 47.096 94.8233 48.3595C92.0768 49.623 89.6362 51.4656 87.6687 53.761C85.4987 51.1998 83.979 48.1526 83.2388 44.8784C82.4985 41.6042 82.5595 38.1997 83.4167 34.9541C84.2739 31.7085 85.9019 28.7178 88.1623 26.2361C90.4227 23.7544 93.2488 21.855 96.4005 20.6993C99.5521 19.5436 102.936 19.1657 106.265 19.5979C109.594 20.03 112.769 21.2593 115.522 23.1814C118.274 25.1035 120.521 27.6615 122.073 30.6381C123.625 33.6147 124.435 36.922 124.435 40.2788V40.2788Z" fill="#FF8A00"/>
<path d="M119.494 53.7553C117.537 56.0666 115.1 57.9239 112.352 59.198C109.604 60.4721 106.612 61.1323 103.583 61.1329C100.554 61.1334 97.5614 60.4742 94.8131 59.2012C92.0649 57.9281 89.6269 56.0716 87.6687 53.761C89.6361 51.4656 92.0768 49.623 94.8233 48.3595C97.5697 47.096 100.557 46.4416 103.58 46.441C106.603 46.4405 109.591 47.0939 112.338 48.3564C115.085 49.6189 117.526 51.4606 119.494 53.7553V53.7553Z" fill="white"/>
<path d="M103.582 42.5501C108.237 42.5501 112.011 38.7761 112.011 34.1207C112.011 29.4653 108.237 25.6913 103.582 25.6913C98.9264 25.6913 95.1525 29.4653 95.1525 34.1207C95.1525 38.7761 98.9264 42.5501 103.582 42.5501Z" fill="white"/>
<g opacity="0.4">
<path d="M61.4133 119.79C62.8135 119.79 63.9486 118.655 63.9486 117.254C63.9486 115.854 62.8135 114.719 61.4133 114.719C60.0131 114.719 58.8781 115.854 58.8781 117.254C58.8781 118.655 60.0131 119.79 61.4133 119.79Z" fill="#292A2E"/>
<path d="M69.344 119.79C70.7442 119.79 71.8793 118.655 71.8793 117.254C71.8793 115.854 70.7442 114.719 69.344 114.719C67.9438 114.719 66.8087 115.854 66.8087 117.254C66.8087 118.655 67.9438 119.79 69.344 119.79Z" fill="#292A2E"/>
<path d="M77.2747 119.79C78.6749 119.79 79.81 118.655 79.81 117.254C79.81 115.854 78.6749 114.719 77.2747 114.719C75.8745 114.719 74.7394 115.854 74.7394 117.254C74.7394 118.655 75.8745 119.79 77.2747 119.79Z" fill="#292A2E"/>
<path d="M85.2053 119.79C86.6055 119.79 87.7406 118.655 87.7406 117.254C87.7406 115.854 86.6055 114.719 85.2053 114.719C83.8051 114.719 82.67 115.854 82.67 117.254C82.67 118.655 83.8051 119.79 85.2053 119.79Z" fill="#292A2E"/>
<path d="M93.1355 119.79C94.5357 119.79 95.6708 118.655 95.6708 117.254C95.6708 115.854 94.5357 114.719 93.1355 114.719C91.7353 114.719 90.6002 115.854 90.6002 117.254C90.6002 118.655 91.7353 119.79 93.1355 119.79Z" fill="#292A2E"/>
<path d="M101.066 119.79C102.466 119.79 103.601 118.655 103.601 117.254C103.601 115.854 102.466 114.719 101.066 114.719C99.666 114.719 98.5309 115.854 98.5309 117.254C98.5309 118.655 99.666 119.79 101.066 119.79Z" fill="#292A2E"/>
<path d="M108.997 119.79C110.397 119.79 111.532 118.655 111.532 117.254C111.532 115.854 110.397 114.719 108.997 114.719C107.597 114.719 106.462 115.854 106.462 117.254C106.462 118.655 107.597 119.79 108.997 119.79Z" fill="#292A2E"/>
</g>
<g opacity="0.3">
<path d="M63.9279 87.3489V88.2064H60.6719V87.3489H63.9279Z" fill="black"/>
<path d="M67.9741 87.3489V88.2064H64.7182V87.3489H67.9741Z" fill="black"/>
<path d="M72.02 87.3489V88.2064H68.764V87.3489H72.02Z" fill="black"/>
<path d="M76.0659 87.3489V88.2064H72.8099V87.3489H76.0659Z" fill="black"/>
<path d="M80.1124 87.3489V88.2064H76.8561V87.3489H80.1124Z" fill="black"/>
<path d="M87.4143 92.1869C86.6901 92.559 85.8832 92.7408 85.0694 92.7153C82.9075 92.7153 81.075 91.1333 81.075 88.6023C81.075 85.8869 82.9603 83.5403 85.8865 83.5403C88.1803 83.5403 89.7227 85.1481 89.7227 87.35C89.7227 89.3276 88.6151 90.4873 87.376 90.4873C86.849 90.4873 86.3613 90.13 86.4006 89.3276H86.3478C86.1773 89.6751 85.9129 89.968 85.5846 90.1729C85.2562 90.3779 84.877 90.4868 84.4899 90.4873C83.7253 90.4873 83.0661 89.8678 83.0661 88.8267C83.0646 88.4159 83.1445 88.009 83.301 87.6293C83.4575 87.2495 83.6875 86.9045 83.978 86.6141C84.2684 86.3237 84.6134 86.0936 84.9931 85.9371C85.3729 85.7806 85.7798 85.7007 86.1906 85.7022C86.6749 85.6952 87.1554 85.7895 87.6011 85.9791L87.1527 88.3651C86.9551 89.3655 87.1134 89.8299 87.5482 89.8417C88.2206 89.8546 88.972 88.9581 88.972 87.4293C88.972 85.5179 87.8251 84.147 85.7818 84.147C83.6331 84.147 81.827 85.8473 81.827 88.5233C81.827 90.7249 83.264 92.0826 85.2152 92.0826C85.9069 92.0987 86.5915 91.94 87.2056 91.6213L87.4143 92.1869ZM86.6893 86.4922C86.4753 86.4293 86.2532 86.3982 86.0301 86.4C84.87 86.4 83.9343 87.494 83.9343 88.7727C83.9343 89.3526 84.2244 89.7731 84.8043 89.7731C85.5689 89.7731 86.2674 88.7977 86.4121 87.9803L86.6893 86.4922Z" fill="black"/>
<path d="M93.8719 87.3489V88.2064H90.616V87.3489H93.8719Z" fill="black"/>
<path d="M97.9182 87.3489V88.2064H94.6619V87.3489H97.9182Z" fill="black"/>
<path d="M101.964 87.3489V88.2064H98.7081V87.3489H101.964Z" fill="black"/>
</g>
</g>
<defs>
<clipPath id="clip0_19_293">
<rect width="318.034" height="308" fill="white"/>
</clipPath>
</defs>
</svg>
