<svg width="27" height="22" viewBox="0 0 27 22" fill="none" xmlns="http://www.w3.org/2000/svg">
<path d="M25.0019 3.99946H10.8289C10.622 4.5842 10.2389 5.09043 9.73237 5.44847C9.22586 5.80651 8.62083 5.99876 8.00055 5.99876C7.38028 5.99876 6.77525 5.80651 6.26874 5.44847C5.76223 5.09043 5.37914 4.5842 5.17221 3.99946H1.00001C0.734774 3.99946 0.480398 3.89409 0.292847 3.70654C0.105297 3.51899 -6.86646e-05 3.26462 -6.86646e-05 2.99938C-6.86646e-05 2.73414 0.105297 2.47977 0.292847 2.29222C0.480398 2.10467 0.734774 1.9993 1.00001 1.9993H5.17221C5.37914 1.41456 5.76223 0.908332 6.26874 0.550291C6.77525 0.192251 7.38028 0 8.00055 0C8.62083 0 9.22586 0.192251 9.73237 0.550291C10.2389 0.908332 10.622 1.41456 10.8289 1.9993H25.0019C25.2671 1.9993 25.5215 2.10467 25.709 2.29222C25.8966 2.47977 26.002 2.73414 26.002 2.99938C26.002 3.26462 25.8966 3.51899 25.709 3.70654C25.5215 3.89409 25.2671 3.99946 25.0019 3.99946ZM1.00001 18.0005H5.17221C5.37914 17.4158 5.76223 16.9096 6.26874 16.5515C6.77525 16.1935 7.38028 16.0012 8.00055 16.0012C8.62083 16.0012 9.22586 16.1935 9.73237 16.5515C10.2389 16.9096 10.622 17.4158 10.8289 18.0005H25.0019C25.2671 18.0005 25.5215 18.1059 25.709 18.2935C25.8966 18.481 26.002 18.7354 26.002 19.0006C26.002 19.2659 25.8966 19.5202 25.709 19.7078C25.5215 19.8953 25.2671 20.0007 25.0019 20.0007H10.8289C10.622 20.5854 10.2389 21.0917 9.73237 21.4497C9.22586 21.8077 8.62083 22 8.00055 22C7.38028 22 6.77525 21.8077 6.26874 21.4497C5.76223 21.0917 5.37914 20.5854 5.17221 20.0007H1.00001C0.734774 20.0007 0.480398 19.8953 0.292847 19.7078C0.105297 19.5202 -6.86646e-05 19.2659 -6.86646e-05 19.0006C-6.86646e-05 18.7354 0.105297 18.481 0.292847 18.2935C0.480398 18.1059 0.734774 18.0005 1.00001 18.0005ZM1.00001 9.99992H15.173C15.3799 9.41518 15.763 8.90895 16.2695 8.55091C16.776 8.19287 17.3811 8.00062 18.0013 8.00062C18.6216 8.00062 19.2266 8.19287 19.7331 8.55091C20.2397 8.90895 20.6227 9.41518 20.8297 9.99992H25.0019C25.2671 9.99992 25.5215 10.1053 25.709 10.2928C25.8966 10.4804 26.002 10.7348 26.002 11C26.002 11.2652 25.8966 11.5196 25.709 11.7072C25.5215 11.8947 25.2671 12.0001 25.0019 12.0001H20.8297C20.6227 12.5848 20.2397 13.091 19.7331 13.4491C19.2266 13.8071 18.6216 13.9994 18.0013 13.9994C17.3811 13.9994 16.776 13.8071 16.2695 13.4491C15.763 13.091 15.3799 12.5848 15.173 12.0001H1.00001C0.734774 12.0001 0.480398 11.8947 0.292847 11.7072C0.105297 11.5196 -6.86646e-05 11.2652 -6.86646e-05 11C-6.86646e-05 10.7348 0.105297 10.4804 0.292847 10.2928C0.480398 10.1053 0.734774 9.99992 1.00001 9.99992Z" fill="#FF8A00"/>
</svg>
