<svg width="318" height="307" viewBox="0 0 318 307" fill="none" xmlns="http://www.w3.org/2000/svg">
<g clip-path="url(#clip0_19_478)">
<path d="M271.522 4.67737H216.86V75.8262H271.522V4.67737Z" fill="#F4F4F4"/>
<path d="M271.522 75.8265H273.296V4.67764H271.522V75.8265Z" fill="#F4F4F4"/>
<path opacity="0.05" d="M271.522 75.8265H273.296V4.67764H271.522V75.8265Z" fill="#292A2E"/>
<path opacity="0.05" d="M261.565 17.6381H226.818V62.8658H261.565V17.6381Z" fill="#292A2E"/>
<path opacity="0.03" d="M261.565 17.6381H259.754V62.8658H261.565V17.6381Z" fill="#292A2E"/>
<path d="M316.227 93.3232H271.522V138.438H316.227V93.3232Z" fill="#F4F4F4"/>
<path opacity="0.05" d="M308.083 101.541H279.666V130.22H308.083V101.541Z" fill="#292A2E"/>
<path d="M316.227 138.438H318V93.3232H316.227V138.438Z" fill="#F4F4F4"/>
<path opacity="0.05" d="M316.227 138.438H318V93.3232H316.227V138.438Z" fill="#292A2E"/>
<path opacity="0.03" d="M308.083 101.541H306.272V130.22H308.083V101.541Z" fill="#292A2E"/>
<path d="M154.851 0.105164H5.93253V149.024H154.851V0.105164Z" fill="#F4F4F4"/>
<path d="M156.558 0.105164H154.851V149.024H156.558V0.105164Z" fill="#F4F4F4"/>
<path opacity="0.05" d="M156.558 0.105164H154.851V149.024H156.558V0.105164Z" fill="#292A2E"/>
<path opacity="0.05" d="M118.775 102.722V63.7604H86.8592V86.3963H37.4218V126.476H16.4102V149.024H37.4218H41.4698H147.688V102.722H118.775Z" fill="#292A2E"/>
<path opacity="0.34" d="M114.198 67.9907H90.9561V72.2211H114.198V67.9907Z" fill="#FFFFFA"/>
<path opacity="0.34" d="M114.198 76.757H90.9561V80.9874H114.198V76.757Z" fill="#FFFFFA"/>
<path opacity="0.34" d="M114.198 85.5233H90.9561V89.7537H114.198V85.5233Z" fill="#FFFFFA"/>
<path opacity="0.34" d="M143.566 106.829H139.282V111.059H143.566V106.829Z" fill="#FFFFFA"/>
<path opacity="0.34" d="M143.566 115.595H139.282V119.825H143.566V115.595Z" fill="#FFFFFA"/>
<path opacity="0.34" d="M143.566 124.361H139.282V128.592H143.566V124.361Z" fill="#FFFFFA"/>
<path opacity="0.34" d="M135.641 106.829H131.358V111.059H135.641V106.829Z" fill="#FFFFFA"/>
<path opacity="0.34" d="M135.641 115.595H131.358V119.825H135.641V115.595Z" fill="#FFFFFA"/>
<path opacity="0.34" d="M135.641 124.361H131.358V128.592H135.641V124.361Z" fill="#FFFFFA"/>
<path opacity="0.34" d="M127.931 106.829H123.647V111.059H127.931V106.829Z" fill="#FFFFFA"/>
<path opacity="0.34" d="M127.931 115.595H123.647V119.825H127.931V115.595Z" fill="#FFFFFA"/>
<path opacity="0.34" d="M127.931 124.361H123.647V128.592H127.931V124.361Z" fill="#FFFFFA"/>
<path d="M154.851 73.7291H124.886V0.105164H122.408V73.7291H41.4698V0.105164H38.9915V73.7291H5.93253V76.2074H38.9915V149.024H41.4698V76.2074H122.408V149.024H124.886V76.2074H154.851V73.7291Z" fill="white"/>
<path d="M160.784 148.844H0V153.797H160.784V148.844Z" fill="#F4F4F4"/>
<path opacity="0.1" d="M160.784 148.844H0V153.797H160.784V148.844Z" fill="#292A2E"/>
<path opacity="0.1" d="M163.105 148.844H160.784V153.797H163.105V148.844Z" fill="#292A2E"/>
<path opacity="0.1" d="M163.105 148.844H160.784V153.797H163.105V148.844Z" fill="#292A2E"/>
<path opacity="0.05" d="M239.393 300.274H231.121V305.799H239.393V300.274Z" fill="#292A2E"/>
<path opacity="0.05" d="M291.323 300.274H283.051V305.799H291.323V300.274Z" fill="#292A2E"/>
<path d="M298.906 216.103H223.538V300.274H298.906V216.103Z" fill="#F4F4F4"/>
<path opacity="0.03" d="M298.906 216.103H223.538V300.274H298.906V216.103Z" fill="#292A2E"/>
<path d="M278.89 216.103H203.522V300.274H278.89V216.103Z" fill="#F4F4F4"/>
<path opacity="0.05" d="M219.377 300.274H211.105V305.799H219.377V300.274Z" fill="#292A2E"/>
<path opacity="0.05" d="M271.307 300.274H263.035V305.799H271.307V300.274Z" fill="#292A2E"/>
<path opacity="0.7" d="M274.835 221.307H207.576V242.655H274.835V221.307Z" fill="white"/>
<path opacity="0.7" d="M274.835 247.881H207.576V269.229H274.835V247.881Z" fill="white"/>
<path opacity="0.7" d="M274.835 274.454H207.576V295.802H274.835V274.454Z" fill="white"/>
<path opacity="0.05" d="M241.205 234.969C242.855 234.969 244.193 233.631 244.193 231.981C244.193 230.332 242.855 228.994 241.205 228.994C239.556 228.994 238.218 230.332 238.218 231.981C238.218 233.631 239.556 234.969 241.205 234.969Z" fill="#292A2E"/>
<path opacity="0.05" d="M241.205 261.542C242.855 261.542 244.193 260.205 244.193 258.555C244.193 256.905 242.855 255.568 241.205 255.568C239.556 255.568 238.218 256.905 238.218 258.555C238.218 260.205 239.556 261.542 241.205 261.542Z" fill="#292A2E"/>
<path opacity="0.05" d="M241.205 288.115C242.855 288.115 244.193 286.778 244.193 285.128C244.193 283.478 242.855 282.141 241.205 282.141C239.556 282.141 238.218 283.478 238.218 285.128C238.218 286.778 239.556 288.115 241.205 288.115Z" fill="#292A2E"/>
<path d="M35.4222 264.91C35.3805 264.91 35.3391 264.901 35.3006 264.886C35.262 264.87 35.227 264.846 35.1976 264.816C34.75 264.369 34.0202 256.157 32.055 231.706C31.251 221.701 30.4914 212.251 29.937 206.509C29.8976 206.098 29.7384 206.051 29.6863 206.035C28.9274 205.806 26.62 207.626 25.3318 209.219C25.2788 209.285 25.2019 209.326 25.1181 209.335C25.0343 209.344 24.9503 209.319 24.8848 209.266C24.8192 209.213 24.7774 209.137 24.7686 209.053C24.7597 208.969 24.7845 208.885 24.8375 208.819C25.6895 207.766 28.4661 205.004 29.869 205.427C30.1517 205.511 30.5044 205.758 30.5679 206.448C31.1229 212.196 31.8825 221.648 32.6869 231.655C33.8811 246.513 35.2338 263.347 35.6786 264.407C35.7126 264.454 35.7329 264.51 35.7373 264.568C35.7416 264.627 35.7298 264.685 35.7031 264.737C35.6765 264.789 35.636 264.832 35.5861 264.863C35.5363 264.893 35.479 264.91 35.4206 264.91H35.4222Z" fill="#494949"/>
<path d="M29.1209 217.047C34.3926 212.822 36.1398 206.245 33.0235 202.357C29.9072 198.469 23.1074 198.743 17.8357 202.969C12.564 207.194 10.8168 213.772 13.9331 217.659C17.0495 221.547 23.8493 221.273 29.1209 217.047Z" fill="#0CBC8B"/>
<path opacity="0.2" d="M29.1209 217.047C34.3926 212.822 36.1398 206.245 33.0235 202.357C29.9072 198.469 23.1074 198.743 17.8357 202.969C12.564 207.194 10.8168 213.772 13.9331 217.659C17.0495 221.547 23.8493 221.273 29.1209 217.047Z" fill="white"/>
<path d="M15.4104 218.647C15.3803 218.647 15.3507 218.639 15.3253 218.623C15.2998 218.607 15.2795 218.583 15.2667 218.556C15.2539 218.529 15.2491 218.499 15.2529 218.469C15.2566 218.439 15.2689 218.41 15.2881 218.387L30.3119 200.27C30.3252 200.254 30.3416 200.24 30.3601 200.231C30.3785 200.221 30.3987 200.215 30.4195 200.213C30.4403 200.211 30.4613 200.213 30.4812 200.219C30.5011 200.226 30.5197 200.236 30.5357 200.249C30.5518 200.262 30.5651 200.279 30.5748 200.297C30.5845 200.316 30.5906 200.336 30.5925 200.357C30.5944 200.377 30.5922 200.398 30.5861 200.418C30.5799 200.438 30.5699 200.457 30.5565 200.473L15.5327 218.59C15.5178 218.608 15.4991 218.622 15.478 218.632C15.4569 218.642 15.4338 218.647 15.4104 218.647V218.647Z" fill="white"/>
<path d="M38.6982 261.026C38.6627 261.026 38.6274 261.02 38.594 261.008C38.5144 260.98 38.4491 260.922 38.4124 260.846C38.3757 260.77 38.3706 260.683 38.3983 260.603L44.0417 244.374C44.2079 243.897 44.491 243.469 44.8652 243.13C45.2394 242.791 45.6927 242.552 46.1835 242.433C46.6744 242.315 47.1871 242.321 47.6748 242.452C48.1624 242.583 48.6094 242.835 48.9748 243.183L51.9585 246.033C52.0195 246.091 52.0548 246.171 52.0567 246.256C52.0587 246.34 52.0271 246.422 51.9688 246.482C51.9106 246.543 51.8306 246.579 51.7463 246.581C51.662 246.583 51.5804 246.551 51.5195 246.493L48.5361 243.643C48.2476 243.367 47.8947 243.169 47.5097 243.066C47.1247 242.962 46.7199 242.957 46.3324 243.05C45.9449 243.144 45.5871 243.333 45.2916 243.601C44.9962 243.869 44.7727 244.206 44.6415 244.583L38.9984 260.812C38.9768 260.875 38.9362 260.929 38.8824 260.967C38.8286 261.005 38.7642 261.026 38.6982 261.026Z" fill="#494949"/>
<path d="M60.2933 255.018C64.2001 251.926 63.9679 245.124 59.7747 239.827C55.5815 234.529 49.0152 232.742 45.1084 235.834C41.2016 238.926 41.4337 245.728 45.6269 251.025C49.8201 256.323 56.3865 258.11 60.2933 255.018Z" fill="#0CBC8B"/>
<path d="M32.8579 263.875C32.7865 263.874 32.7173 263.85 32.6613 263.806C32.6052 263.762 32.5657 263.7 32.5491 263.631L23.0785 224.033C23.0137 223.763 22.8758 223.516 22.6799 223.319C22.484 223.123 22.2377 222.984 21.968 222.918C21.6984 222.853 21.4159 222.863 21.1515 222.947C20.8872 223.032 20.6513 223.187 20.4696 223.397L17.5501 226.771C17.5232 226.804 17.49 226.831 17.4525 226.851C17.4149 226.87 17.3738 226.882 17.3315 226.886C17.2892 226.89 17.2466 226.885 17.2062 226.872C17.1658 226.859 17.1285 226.838 17.0964 226.81C17.0643 226.782 17.0381 226.748 17.0193 226.71C17.0005 226.672 16.9896 226.63 16.9871 226.588C16.9846 226.546 16.9906 226.503 17.0048 226.463C17.019 226.423 17.0411 226.387 17.0697 226.355L19.989 222.982C20.247 222.683 20.5824 222.462 20.9581 222.342C21.3338 222.222 21.7354 222.208 22.1187 222.301C22.5019 222.394 22.852 222.592 23.1304 222.871C23.4088 223.15 23.6048 223.501 23.6967 223.885L33.1667 263.483C33.1863 263.565 33.1725 263.651 33.1284 263.723C33.0843 263.795 33.0135 263.846 32.9316 263.866C32.9075 263.872 32.8827 263.875 32.8579 263.875V263.875Z" fill="#494949"/>
<path d="M29.3634 235.568C30.5147 228.911 27.4679 222.825 22.5582 221.976C17.6485 221.127 12.7351 225.836 11.5839 232.493C10.4326 239.151 13.4794 245.236 18.3891 246.085C23.2988 246.934 28.2122 242.225 29.3634 235.568Z" fill="#0CBC8B"/>
<path d="M35.4222 264.91C35.4091 264.91 35.3961 264.909 35.3831 264.907C35.3417 264.902 35.3016 264.889 35.2653 264.868C35.229 264.848 35.197 264.82 35.1713 264.788C35.1456 264.755 35.1267 264.717 35.1155 264.677C35.1044 264.637 35.1013 264.595 35.1064 264.553L41.1539 215.452C41.2199 214.917 41.4389 214.413 41.7846 213.999C42.1304 213.586 42.5882 213.281 43.1029 213.122C43.6177 212.962 44.1676 212.955 44.6865 213.1C45.2053 213.246 45.6711 213.538 46.0279 213.942L52.9401 221.771C52.9678 221.802 52.9889 221.839 53.0025 221.878C53.016 221.918 53.0217 221.959 53.0191 222.001C53.0165 222.043 53.0057 222.083 52.9874 222.121C52.969 222.158 52.9435 222.192 52.9122 222.22C52.8809 222.247 52.8445 222.268 52.805 222.282C52.7655 222.295 52.7238 222.301 52.6821 222.298C52.6405 222.296 52.5997 222.285 52.5622 222.267C52.5247 222.248 52.4912 222.223 52.4636 222.192L45.5514 214.363C45.2757 214.051 44.9157 213.825 44.5146 213.712C44.1136 213.6 43.6886 213.605 43.2907 213.728C42.8928 213.852 42.539 214.087 42.2718 214.407C42.0046 214.726 41.8354 215.116 41.7845 215.53L35.737 264.631C35.7276 264.707 35.6903 264.778 35.6324 264.83C35.5744 264.881 35.4996 264.909 35.4222 264.91Z" fill="#494949"/>
<path d="M60.029 226.121C62.4407 221.761 59.6031 215.576 53.6911 212.306C47.779 209.035 41.0313 209.919 38.6196 214.279C36.2079 218.639 39.0455 224.824 44.9575 228.095C50.8695 231.365 57.6173 230.481 60.029 226.121Z" fill="#0CBC8B"/>
<path opacity="0.2" d="M60.2933 255.018C64.2001 251.926 63.9679 245.124 59.7747 239.827C55.5815 234.529 49.0152 232.742 45.1084 235.834C41.2016 238.926 41.4337 245.728 45.6269 251.025C49.8201 256.323 56.3865 258.11 60.2933 255.018Z" fill="white"/>
<path opacity="0.5" d="M29.3634 235.568C30.5147 228.911 27.4679 222.825 22.5582 221.976C17.6485 221.127 12.7351 225.836 11.5839 232.493C10.4326 239.151 13.4794 245.236 18.3891 246.085C23.2988 246.934 28.2122 242.225 29.3634 235.568Z" fill="white"/>
<path opacity="0.5" d="M60.029 226.121C62.4407 221.761 59.6031 215.576 53.6911 212.306C47.779 209.035 41.0313 209.919 38.6196 214.279C36.2079 218.639 39.0455 224.824 44.9575 228.095C50.8695 231.365 57.6173 230.481 60.029 226.121Z" fill="white"/>
<path d="M43.1566 306.572H27.6865L25.1227 257.075H45.7201L43.1566 306.572Z" fill="#292A2E"/>
<path opacity="0.3" d="M43.1566 306.572H27.6865L25.1227 257.075H45.7201L43.1566 306.572Z" fill="white"/>
<path d="M60.2943 255.177C60.2704 255.177 60.2467 255.172 60.2251 255.161C60.2036 255.151 60.1846 255.136 60.1698 255.117L44.9843 235.933C44.9713 235.916 44.9617 235.898 44.956 235.878C44.9503 235.858 44.9486 235.837 44.951 235.816C44.9534 235.795 44.9599 235.775 44.97 235.757C44.9802 235.739 44.9938 235.723 45.0102 235.71C45.0265 235.697 45.0453 235.687 45.0653 235.681C45.0854 235.676 45.1064 235.674 45.1271 235.676C45.1479 235.679 45.1679 235.685 45.1861 235.695C45.2044 235.706 45.2204 235.719 45.2334 235.736L60.4189 254.919C60.4374 254.943 60.4491 254.971 60.4523 255.001C60.4556 255.03 60.4505 255.061 60.4375 255.087C60.4245 255.114 60.4041 255.137 60.3788 255.153C60.3535 255.169 60.3242 255.177 60.2943 255.177V255.177Z" fill="white"/>
<path d="M59.0195 227.659C58.9857 227.658 58.9529 227.647 58.9258 227.627L39.4941 213.438C39.4601 213.413 39.4373 213.376 39.4308 213.334C39.4243 213.293 39.4346 213.25 39.4595 213.216C39.4843 213.182 39.5217 213.159 39.5633 213.153C39.605 213.146 39.6475 213.157 39.6815 213.182L59.1133 227.371C59.1399 227.391 59.1596 227.418 59.1696 227.45C59.1795 227.482 59.1792 227.516 59.1686 227.548C59.1581 227.579 59.1379 227.607 59.1108 227.626C59.0838 227.646 59.0513 227.656 59.0179 227.656L59.0195 227.659Z" fill="white"/>
<path d="M17.5999 245.877C17.5861 245.878 17.5723 245.876 17.5589 245.872C17.5186 245.861 17.4842 245.834 17.4633 245.798C17.4424 245.762 17.4367 245.719 17.4474 245.678L23.6331 222.502C23.6382 222.481 23.6473 222.462 23.66 222.445C23.6726 222.428 23.6884 222.414 23.7066 222.403C23.7247 222.393 23.7448 222.386 23.7657 222.383C23.7866 222.38 23.8079 222.381 23.8282 222.387C23.8486 222.392 23.8677 222.401 23.8844 222.414C23.9011 222.427 23.915 222.443 23.9254 222.462C23.9358 222.48 23.9425 222.5 23.945 222.521C23.9475 222.542 23.9458 222.563 23.94 222.584L17.7543 245.76C17.7452 245.794 17.7252 245.824 17.6972 245.845C17.6693 245.866 17.6351 245.878 17.5999 245.877Z" fill="white"/>
<path d="M235.776 17.5898H53.2039C47.9402 17.5898 43.6732 21.8568 43.6732 27.1204V228.527C43.6732 233.791 47.9402 238.058 53.2039 238.058H235.776C241.039 238.058 245.306 233.791 245.306 228.527V27.1204C245.306 21.8568 241.039 17.5898 235.776 17.5898Z" fill="white"/>
<path d="M235.595 238.106H53.0222C50.4112 238.103 47.908 237.064 46.0617 235.218C44.2154 233.372 43.1769 230.868 43.1738 228.257V26.851C43.1769 24.24 44.2154 21.7368 46.0617 19.8905C47.908 18.0443 50.4112 17.0057 53.0222 17.0027H235.595C238.206 17.0056 240.709 18.0442 242.556 19.8904C244.402 21.7367 245.44 24.24 245.443 26.851V228.257C245.44 230.869 244.402 233.372 242.556 235.218C240.709 237.064 238.206 238.103 235.595 238.106V238.106ZM53.0222 17.6381C50.5796 17.6409 48.2379 18.6125 46.5108 20.3396C44.7836 22.0668 43.8121 24.4085 43.8092 26.851V228.257C43.812 230.7 44.7835 233.042 46.5107 234.769C48.2378 236.496 50.5796 237.468 53.0222 237.47H235.595C238.038 237.468 240.379 236.496 242.107 234.769C243.834 233.042 244.805 230.7 244.808 228.257V26.851C244.805 24.4085 243.834 22.0668 242.106 20.3396C240.379 18.6125 238.038 17.6409 235.595 17.6381H53.0222Z" fill="#292A2E"/>
<path d="M245.125 26.8498V34.2163H43.4938V26.8498C43.4938 24.3221 44.4979 21.8979 46.2852 20.1106C48.0726 18.3232 50.4967 17.3191 53.0244 17.3191H235.595C238.123 17.3191 240.547 18.3232 242.334 20.1106C244.121 21.8979 245.125 24.3221 245.125 26.8498Z" fill="#292A2E"/>
<path opacity="0.1" d="M77.1129 92.7237C89.9816 92.7237 100.414 82.2916 100.414 69.4229C100.414 56.5542 89.9816 46.122 77.1129 46.122C64.2442 46.122 53.812 56.5542 53.812 69.4229C53.812 82.2916 64.2442 92.7237 77.1129 92.7237Z" fill="#FF8A00"/>
<path opacity="0.2" d="M77.1128 68.4203C81.5825 68.4203 85.2059 64.7969 85.2059 60.3272C85.2059 55.8574 81.5825 52.234 77.1128 52.234C72.6431 52.234 69.0197 55.8574 69.0197 60.3272C69.0197 64.7969 72.6431 68.4203 77.1128 68.4203Z" fill="#FF8A00"/>
<path opacity="0.2" d="M94.6298 84.7879C92.4429 87.2813 89.7489 89.2791 86.7278 90.6477C83.7068 92.0163 80.4284 92.7241 77.1118 92.7238C73.7952 92.7235 70.5169 92.0151 67.4961 90.646C64.4753 89.2769 61.7816 87.2786 59.5952 84.7847C60.7152 81.0078 63.026 77.6941 66.1831 75.3376C69.3401 72.9811 73.1742 71.7082 77.1137 71.7085C81.0532 71.7089 84.887 72.9825 88.0436 75.3396C91.2002 77.6966 93.5104 81.0108 94.6298 84.7879Z" fill="#FF8A00"/>
<path opacity="0.2" d="M88.1185 108.619H56.5359C55.3961 108.619 54.4722 109.543 54.4722 110.683C54.4722 111.823 55.3961 112.747 56.5359 112.747H88.1185C89.2583 112.747 90.1822 111.823 90.1822 110.683C90.1822 109.543 89.2583 108.619 88.1185 108.619Z" fill="#FF8A00"/>
<path opacity="0.1" d="M163.163 47.687H113.521C111.667 47.687 110.164 49.1897 110.164 51.0434V58.0049C110.164 59.8585 111.667 61.3612 113.521 61.3612H163.163C165.017 61.3612 166.519 59.8585 166.519 58.0049V51.0434C166.519 49.1897 165.017 47.687 163.163 47.687Z" fill="#FF8A00"/>
<path opacity="0.2" d="M186.16 68.9209H111.753C110.875 68.9209 110.164 69.6321 110.164 70.5094C110.164 71.3866 110.875 72.0978 111.753 72.0978H186.16C187.037 72.0978 187.748 71.3866 187.748 70.5094C187.748 69.6321 187.037 68.9209 186.16 68.9209Z" fill="#FF8A00"/>
<path opacity="0.2" d="M186.16 78.4516H111.753C110.875 78.4516 110.164 79.1628 110.164 80.04C110.164 80.9173 110.875 81.6285 111.753 81.6285H186.16C187.037 81.6285 187.748 80.9173 187.748 80.04C187.748 79.1628 187.037 78.4516 186.16 78.4516Z" fill="#FF8A00"/>
<path opacity="0.2" d="M173.452 87.9822H111.753C110.875 87.9822 110.164 88.6934 110.164 89.5707C110.164 90.448 110.875 91.1591 111.753 91.1591H173.452C174.33 91.1591 175.041 90.448 175.041 89.5707C175.041 88.6934 174.33 87.9822 173.452 87.9822Z" fill="#FF8A00"/>
<path opacity="0.1" d="M135.021 118.7H57.4556C55.8079 118.7 54.4722 120.036 54.4722 121.684V129.055C54.4722 130.702 55.8079 132.038 57.4556 132.038H135.021C136.669 132.038 138.004 130.702 138.004 129.055V121.684C138.004 120.036 136.669 118.7 135.021 118.7Z" fill="#FF8A00"/>
<path opacity="0.2" d="M183.221 108.619H151.638C150.498 108.619 149.574 109.543 149.574 110.683C149.574 111.823 150.498 112.747 151.638 112.747H183.221C184.36 112.747 185.284 111.823 185.284 110.683C185.284 109.543 184.36 108.619 183.221 108.619Z" fill="#FF8A00"/>
<path opacity="0.1" d="M230.123 118.7H152.558C150.91 118.7 149.574 120.036 149.574 121.684V129.055C149.574 130.702 150.91 132.038 152.558 132.038H230.123C231.771 132.038 233.107 130.702 233.107 129.055V121.684C233.107 120.036 231.771 118.7 230.123 118.7Z" fill="#FF8A00"/>
<path opacity="0.2" d="M88.1185 143.065H56.5359C55.3961 143.065 54.4722 143.989 54.4722 145.129C54.4722 146.268 55.3961 147.192 56.5359 147.192H88.1185C89.2583 147.192 90.1822 146.268 90.1822 145.129C90.1822 143.989 89.2583 143.065 88.1185 143.065Z" fill="#FF8A00"/>
<path opacity="0.1" d="M135.021 153.146H57.4556C55.8079 153.146 54.4722 154.482 54.4722 156.129V163.5C54.4722 165.148 55.8079 166.484 57.4556 166.484H135.021C136.669 166.484 138.004 165.148 138.004 163.5V156.129C138.004 154.482 136.669 153.146 135.021 153.146Z" fill="#FF8A00"/>
<path opacity="0.2" d="M183.221 143.065H151.638C150.498 143.065 149.574 143.989 149.574 145.129C149.574 146.268 150.498 147.192 151.638 147.192H183.221C184.36 147.192 185.284 146.268 185.284 145.129C185.284 143.989 184.36 143.065 183.221 143.065Z" fill="#FF8A00"/>
<path opacity="0.1" d="M230.123 153.146H152.558C150.91 153.146 149.574 154.482 149.574 156.129V163.5C149.574 165.148 150.91 166.484 152.558 166.484H230.123C231.771 166.484 233.107 165.148 233.107 163.5V156.129C233.107 154.482 231.771 153.146 230.123 153.146Z" fill="#FF8A00"/>
<path opacity="0.2" d="M88.1185 177.511H56.5359C55.3961 177.511 54.4722 178.435 54.4722 179.574C54.4722 180.714 55.3961 181.638 56.5359 181.638H88.1185C89.2583 181.638 90.1822 180.714 90.1822 179.574C90.1822 178.435 89.2583 177.511 88.1185 177.511Z" fill="#FF8A00"/>
<path opacity="0.1" d="M135.021 187.591H57.4556C55.8079 187.591 54.4722 188.927 54.4722 190.575V197.946C54.4722 199.594 55.8079 200.929 57.4556 200.929H135.021C136.669 200.929 138.004 199.594 138.004 197.946V190.575C138.004 188.927 136.669 187.591 135.021 187.591Z" fill="#FF8A00"/>
<path opacity="0.2" d="M183.221 177.511H151.638C150.498 177.511 149.574 178.435 149.574 179.574C149.574 180.714 150.498 181.638 151.638 181.638H183.221C184.36 181.638 185.284 180.714 185.284 179.574C185.284 178.435 184.36 177.511 183.221 177.511Z" fill="#FF8A00"/>
<path opacity="0.1" d="M230.123 187.591H152.558C150.91 187.591 149.574 188.927 149.574 190.575V197.946C149.574 199.594 150.91 200.929 152.558 200.929H230.123C231.771 200.929 233.107 199.594 233.107 197.946V190.575C233.107 188.927 231.771 187.591 230.123 187.591Z" fill="#FF8A00"/>
<path opacity="0.2" d="M168.551 211.321H120.067C118.111 211.321 116.525 212.907 116.525 214.863V221.403C116.525 223.359 118.111 224.945 120.067 224.945H168.551C170.507 224.945 172.093 223.359 172.093 221.403V214.863C172.093 212.907 170.507 211.321 168.551 211.321Z" fill="#FF8A00"/>
<path d="M152.767 57.0629L157.901 63.1263L157.583 62.0852C157.487 61.7472 157.523 61.3852 157.684 61.0727C157.844 60.7601 158.118 60.5202 158.449 60.4015C158.621 60.3461 158.804 60.3266 158.984 60.344C159.165 60.3615 159.34 60.4155 159.499 60.5029C159.658 60.5902 159.798 60.7091 159.91 60.8522C160.021 60.9953 160.103 61.1596 160.149 61.3352L162.496 70.1729C162.792 71.2885 162.641 72.4758 162.074 73.4813C161.507 74.4869 160.57 75.2312 159.462 75.5555V75.5555C158.176 75.932 156.807 75.9158 155.53 75.509C154.253 75.1022 153.126 74.3234 152.295 73.2723L148.537 68.5035C148.337 68.2595 148.227 67.9539 148.227 67.6384C148.226 67.3229 148.334 67.0168 148.534 66.7721C148.718 66.5546 148.967 66.4018 149.245 66.3361C149.522 66.2704 149.814 66.2951 150.076 66.4067C150.081 66.3858 150.092 66.3667 150.108 66.3515C150.123 66.338 150.142 66.3286 150.161 66.3241C150.181 66.3195 150.202 66.32 150.222 66.3254L149.526 65.4454C149.312 65.1875 149.2 64.8611 149.208 64.5265C149.217 64.1919 149.346 63.8717 149.572 63.6251C149.804 63.3883 150.116 63.2461 150.446 63.2261C150.777 63.206 151.103 63.3095 151.362 63.5164C151.364 63.5024 151.368 63.4888 151.375 63.4764L151.089 63.1155C150.902 62.8683 150.8 62.5676 150.798 62.2579C150.795 61.9482 150.892 61.646 151.075 61.3958C151.298 61.1266 151.618 60.9556 151.966 60.9193C152.314 60.883 152.662 60.9844 152.936 61.2017L152.954 61.1836L150.797 58.6361C150.686 58.5054 150.604 58.3536 150.554 58.1899C150.504 58.0262 150.487 57.854 150.506 57.6838C150.525 57.5137 150.578 57.3491 150.663 57.2002C150.747 57.0513 150.861 56.9211 150.997 56.8176C151.268 56.6265 151.602 56.5456 151.93 56.5911C152.259 56.6366 152.558 56.8053 152.767 57.0629V57.0629Z" fill="#E98862"/>
<path opacity="0.2" d="M152.884 61.3447C152.889 61.3584 152.897 61.3711 152.906 61.3822L155.032 63.8335C155.043 63.846 155.056 63.8563 155.071 63.8637C155.085 63.8711 155.101 63.8756 155.118 63.8768C155.134 63.878 155.151 63.876 155.167 63.8708C155.182 63.8657 155.197 63.8575 155.209 63.8467C155.222 63.8359 155.232 63.8227 155.24 63.808C155.247 63.7932 155.251 63.7772 155.253 63.7607C155.254 63.7442 155.252 63.7277 155.247 63.712C155.242 63.6963 155.233 63.6818 155.223 63.6692L153.099 61.2189C153.079 61.1984 153.053 61.1852 153.024 61.1815C152.996 61.1778 152.967 61.1838 152.942 61.1985C152.918 61.2132 152.899 61.2357 152.889 61.2625C152.879 61.2893 152.878 61.3187 152.887 61.346L152.884 61.3447Z" fill="#0C0C0C"/>
<path opacity="0.2" d="M151.365 63.5752C151.37 63.5885 151.378 63.6008 151.387 63.6117L153.041 65.5496C153.063 65.5728 153.094 65.5866 153.126 65.5883C153.158 65.5899 153.189 65.5792 153.213 65.5584C153.238 65.5376 153.253 65.5082 153.257 65.4763C153.26 65.4444 153.251 65.4125 153.232 65.3869L151.577 63.449C151.558 63.4263 151.531 63.4112 151.502 63.4063C151.473 63.4015 151.443 63.4072 151.417 63.4224C151.392 63.4377 151.372 63.4615 151.363 63.4897C151.353 63.5178 151.354 63.5485 151.365 63.5761L151.365 63.5752Z" fill="#0C0C0C"/>
<path opacity="0.2" d="M150.074 66.4909C150.079 66.5053 150.087 66.5185 150.098 66.53L150.902 67.4272C150.913 67.4394 150.926 67.4494 150.941 67.4565C150.956 67.4637 150.972 67.4678 150.988 67.4687C151.005 67.4696 151.021 67.4673 151.037 67.4619C151.052 67.4564 151.067 67.448 151.079 67.437C151.091 67.426 151.101 67.4127 151.108 67.3979C151.115 67.3831 151.12 67.367 151.121 67.3506C151.121 67.3341 151.119 67.3177 151.114 67.3021C151.108 67.2866 151.1 67.2723 151.089 67.26L150.286 66.3626C150.266 66.3412 150.24 66.3273 150.211 66.3232C150.183 66.3191 150.154 66.325 150.129 66.34C150.104 66.3549 150.085 66.378 150.075 66.4053C150.066 66.4326 150.066 66.4624 150.075 66.4897L150.074 66.4909Z" fill="#0C0C0C"/>
<path d="M214.953 117.878L170.131 114.741C168.514 114.628 166.962 114.059 165.655 113.1C164.348 112.141 163.34 110.831 162.747 109.323L148.575 73.2723L164.541 66.9961L176.73 98.0059L216.149 100.765L214.953 117.878Z" fill="#FF8A00"/>
<path d="M240.977 292.127C240.977 292.127 239.543 299.56 232.582 299.976C225.62 300.392 227.13 305.936 227.13 305.936H253.733V292.645L240.977 292.127Z" fill="#FF8A00"/>
<path d="M249.183 156.496C249.183 156.496 249.099 154.261 249.117 159.331C249.183 178.243 249.511 199.844 250.313 212.485C251.602 232.805 254.907 296.872 254.907 296.872L237.426 296.725L220.482 155.727L249.183 156.496Z" fill="#262626"/>
<path d="M209.856 292.127C209.856 292.127 208.422 299.56 201.46 299.976C194.499 300.392 196.009 305.936 196.009 305.936H222.612V292.645L209.856 292.127Z" fill="#FF8A00"/>
<path d="M201.392 157.965C201.392 157.965 199.844 222.6 200.071 225.759L206.572 296.381L223.764 296.699L222.089 223.204C222.089 223.204 223.27 202.93 228.169 184.105C230.675 174.443 232.183 164.549 232.67 154.58V154.58L201.392 157.965Z" fill="#262626"/>
<path d="M249.373 156.494L249.43 156.497C249.43 156.497 249.389 155.395 249.373 156.494Z" fill="#333333"/>
<path d="M198.931 122.087C199.292 126.323 201.046 152.747 201.392 157.964H249.163C249.433 153.259 250.645 132.684 251.668 123.483C252.645 114.703 254.561 110.307 253.157 107.711C250.861 103.469 244.588 101.017 240.311 100.438C237.699 100.084 233.77 99.8307 233.77 99.8307C233.77 99.8307 233.438 106.56 225.506 106.934C214.71 107.443 215.431 99.8307 215.377 99.8307C213.628 99.8307 203.443 100.653 201.191 102.387C197.253 105.419 198.166 113.112 198.931 122.087Z" fill="#FF8A00"/>
<path d="M198.272 116.78C198.231 116.78 198.192 116.765 198.163 116.737C198.133 116.709 198.115 116.671 198.113 116.63L197.729 109.905C197.727 109.863 197.741 109.821 197.769 109.79C197.797 109.758 197.837 109.739 197.879 109.737C197.921 109.735 197.962 109.75 197.993 109.778C198.024 109.806 198.043 109.845 198.046 109.887L198.432 116.612C198.434 116.654 198.42 116.695 198.392 116.727C198.364 116.758 198.324 116.777 198.282 116.78L198.272 116.78Z" fill="#0C0C0C"/>
<path d="M259.492 157.688C260.897 157.687 262.281 157.348 263.527 156.697C264.772 156.047 265.842 155.106 266.646 153.953C267.449 152.8 267.962 151.47 268.141 150.077C268.32 148.683 268.16 147.267 267.674 145.949C267.18 144.61 255.61 113.971 253.407 108.295L237.097 114.903C238.336 118.095 242.823 130.194 246.428 139.94L240.439 139.289L238.554 156.63L258.548 157.636C258.861 157.67 259.176 157.687 259.492 157.688V157.688Z" fill="#FF8A00"/>
<path d="M209.686 99.2506C209.74 99.2437 211.205 104.758 222.641 103.9C230.558 103.307 232.489 97.9179 232.67 97.9179C231.816 97.7365 230.43 97.5481 230.051 97.3461C228.804 96.6764 227.896 95.8609 227.439 94.1111C227.082 92.7425 226.899 87.4743 226.899 84.8311L214.716 87.5686C214.886 90.5504 216.075 97.4624 211.909 98.6858C211.217 98.8878 210.47 99.074 209.686 99.2506Z" fill="#E98862"/>
<path d="M215.139 93.4303C219.941 93.8093 226.111 91.7815 227.283 85.374L228.34 79.5921C229.512 73.1846 227.096 67.3747 221.065 66.2714C215.032 65.1681 209.572 69.5376 208.401 75.945L207.932 78.5046C207.482 80.9635 206.57 92.7542 215.139 93.4303Z" fill="#E98862"/>
<path d="M210.686 87.5473C211.548 83.216 211.943 80.326 211.897 77.2771C210.683 75.1486 211.002 72.7024 211.278 71.6464C210.442 72.1776 209.459 72.4298 208.47 72.3666C208.47 72.3666 210.478 64.3075 217.302 62.1389C218.557 61.6503 221.761 61.0334 226.016 61.617C229.635 62.1132 238.556 64.8193 239.83 74.8623V74.8681C239.872 75.201 240.729 84.4543 242.435 88.894C244.731 94.8624 247.954 96.7168 247.872 103.603C247.767 112.46 231.483 113.639 221.663 112.977C211.842 112.315 206.358 109.085 206.286 102.701C206.212 95.5493 208.961 96.2135 210.686 87.5473Z" fill="#0A0A0A"/>
<path d="M250.184 123.661L249.01 157.96L249.328 157.971L250.502 123.672L250.184 123.661Z" fill="#0C0C0C"/>
<path d="M19.2157 306.572H300.406C300.437 306.573 300.469 306.568 300.498 306.557C300.528 306.545 300.554 306.528 300.577 306.506C300.6 306.485 300.618 306.458 300.63 306.429C300.642 306.4 300.649 306.369 300.649 306.338C300.649 306.306 300.642 306.275 300.63 306.246C300.618 306.217 300.6 306.191 300.577 306.169C300.554 306.147 300.528 306.13 300.498 306.119C300.469 306.108 300.437 306.103 300.406 306.104H19.2157C19.1842 306.103 19.1529 306.108 19.1235 306.119C19.0941 306.13 19.0672 306.147 19.0446 306.169C19.0219 306.191 19.0039 306.217 18.9916 306.246C18.9793 306.275 18.9729 306.306 18.9729 306.338C18.9729 306.369 18.9793 306.4 18.9916 306.429C19.0039 306.458 19.0219 306.485 19.0446 306.506C19.0672 306.528 19.0941 306.545 19.1235 306.557C19.1529 306.568 19.1842 306.573 19.2157 306.572V306.572Z" fill="#292A2E"/>
<path d="M229.442 178.797C229.442 178.797 228.717 192.521 228.584 195.743C228.274 203.194 228.166 210.909 228.166 219.656L225.41 196.726C225.41 196.726 227.425 189.539 229.442 178.797Z" fill="#0A0A0A"/>
</g>
<defs>
<clipPath id="clip0_19_478">
<rect width="318" height="306.467" fill="white" transform="translate(0 0.105164)"/>
</clipPath>
</defs>
</svg>
