<svg width="67" height="67" viewBox="0 0 67 67" fill="none" xmlns="http://www.w3.org/2000/svg">
<circle cx="33.5" cy="33.5" r="33.5" fill="#FF8A00"/>
<path d="M31 21.2567V32.34H18.5966L21.4666 29.4667C21.6788 29.2549 21.8077 28.974 21.8301 28.6751C21.8524 28.3762 21.7666 28.0792 21.5883 27.8383L21.4666 27.6983C21.2548 27.4869 20.9741 27.3585 20.6756 27.3365C20.377 27.3144 20.0806 27.4003 19.84 27.5783L19.7 27.6983L14.705 32.695C14.4933 32.9066 14.3645 33.1872 14.3422 33.4858C14.3199 33.7843 14.4054 34.0809 14.5833 34.3217L14.705 34.4617L19.6983 39.4667C19.9214 39.6888 20.22 39.8186 20.5346 39.8301C20.8492 39.8416 21.1566 39.734 21.3953 39.5288C21.634 39.3236 21.7865 39.0358 21.8223 38.723C21.858 38.4103 21.7745 38.0955 21.5883 37.8417L21.4683 37.7017L18.6133 34.84H30.9983L31 46.0833C31.0001 46.2657 31.0402 46.4459 31.1174 46.6112C31.1946 46.7764 31.307 46.9228 31.4467 47.04C31.5865 47.1572 31.7502 47.2424 31.9264 47.2897C32.1026 47.3369 32.287 47.3449 32.4666 47.3133L46.6333 44.8117C46.9229 44.7607 47.1852 44.6093 47.3742 44.384C47.5632 44.1587 47.6668 43.874 47.6666 43.58V23.5833C47.6666 23.2871 47.5614 23.0004 47.3697 22.7745C47.178 22.5486 46.9123 22.3982 46.62 22.35L32.4533 20.0233C32.2744 19.9938 32.0911 20.0036 31.9164 20.052C31.7416 20.1004 31.5794 20.1863 31.4412 20.3036C31.3029 20.421 31.1918 20.567 31.1156 20.7316C31.0394 20.8961 31 21.0753 31 21.2567ZM36.83 33.165C37.2731 33.165 37.6981 33.341 38.0114 33.6544C38.3248 33.9677 38.5008 34.3927 38.5008 34.8358C38.5008 35.279 38.3248 35.7039 38.0114 36.0173C37.6981 36.3306 37.2731 36.5067 36.83 36.5067C36.3868 36.5067 35.9618 36.3306 35.6485 36.0173C35.3352 35.7039 35.1591 35.279 35.1591 34.8358C35.1591 34.3927 35.3352 33.9677 35.6485 33.6544C35.9618 33.341 36.3868 33.165 36.83 33.165ZM29.3333 44.8367H28.0583L27.8883 44.825C27.5888 44.7839 27.3143 44.6356 27.1157 44.4076C26.9171 44.1796 26.8079 43.8873 26.8083 43.585L26.82 36.5017H29.3333V44.835V44.8367ZM29.33 30.6667L29.3333 28.5417V22.3333H28.0916C27.7898 22.3333 27.4982 22.4424 27.2706 22.6406C27.043 22.8389 26.8947 23.1127 26.8533 23.4117L26.8416 23.58L26.83 30.6667H29.33V30.6667Z" fill="white"/>
</svg>
