<svg width="314" height="176" viewBox="0 0 314 176" fill="none" xmlns="http://www.w3.org/2000/svg">
<path d="M306.001 67.7953L302.672 76.3118L305.032 77.2342L308.361 68.7178L306.001 67.7953Z" fill="#3DC9A2"/>
<path d="M98.0592 46.9119L96.1716 48.6024L102.272 55.4138L104.16 53.7233L98.0592 46.9119Z" fill="#FF8A00"/>
<path d="M126.027 77.3987L118.709 82.8805L120.228 84.9088L127.547 79.4269L126.027 77.3987Z" fill="#3DC9A2"/>
<path d="M210.673 14.4922L208.937 16.3376L215.596 22.6041L217.332 20.7587L210.673 14.4922Z" fill="#3DC9A2"/>
<path d="M162.251 16.53L157.694 24.4575L159.89 25.7204L164.448 17.7928L162.251 16.53Z" fill="#FF8A00"/>
<path d="M228.43 84.3235L226.287 85.6757L231.167 93.4086L233.31 92.0564L228.43 84.3235Z" fill="#FF8A00"/>
<path d="M129.066 121.979L126.799 123.111L130.886 131.291L133.152 130.159L129.066 121.979Z" fill="#FF8A00"/>
<path d="M95.9021 100.456L93.2764 109.215L95.7032 109.942L98.329 101.184L95.9021 100.456Z" fill="#3DC9A2"/>
<path d="M254.524 127.75L246.929 132.842L248.341 134.947L255.935 129.854L254.524 127.75Z" fill="#3DC9A2"/>
<path d="M255.661 2.76544e-06L251.104 7.92735L253.301 9.1902L257.858 1.26285L255.661 2.76544e-06Z" fill="#FF8A00"/>
<path d="M2.36002 64.8545L0 65.7769L3.32881 74.2934L5.68883 73.3709L2.36002 64.8545Z" fill="#FF8A00"/>
<path d="M247.346 54.3333L245.827 56.3616L253.145 61.8434L254.664 59.8152L247.346 54.3333Z" fill="#FF8A00"/>
<path d="M41.7714 16.972L35.1121 23.2385L36.8485 25.0839L43.5079 18.8174L41.7714 16.972Z" fill="#3DC9A2"/>
<path d="M115.532 9.50962L113.335 10.7725L117.892 18.7001L120.089 17.4372L115.532 9.50962Z" fill="#3DC9A2"/>
<path d="M25.9305 109.044L21.0507 116.777L23.1936 118.129L28.0734 110.396L25.9305 109.044Z" fill="#FF8A00"/>
<path d="M4.31617 130.227L2.90479 132.333L10.5034 137.426L11.9147 135.32L4.31617 130.227Z" fill="#3DC9A2"/>
<path d="M297.474 29.2448L295.277 30.5077L299.834 38.4351L302.031 37.1722L297.474 29.2448Z" fill="#3DC9A2"/>
<path d="M202.271 50.8488L196.171 57.6602L198.058 59.3508L204.158 52.5393L202.271 50.8488Z" fill="#3DC9A2"/>
<path d="M148.716 127.625L144.63 135.805L146.897 136.937L150.983 128.758L148.716 127.625Z" fill="#FF8A00"/>
<path d="M181.881 106.103L179.454 106.83L182.08 115.589L184.507 114.862L181.881 106.103Z" fill="#3DC9A2"/>
<path d="M182.698 111.101L174.062 104.536C173.872 104.392 173.654 104.289 173.422 104.234C173.191 104.178 172.95 104.172 172.715 104.214C172.481 104.257 172.258 104.348 172.06 104.482C171.863 104.615 171.696 104.789 171.569 104.99C171.346 105.37 171.273 105.819 171.363 106.25C171.453 106.681 171.699 107.064 172.055 107.323L173.907 108.731L166.052 106.977C165.182 106.767 163.98 107.066 163.808 108.057C163.718 108.434 163.757 108.831 163.921 109.183C164.084 109.535 164.363 109.821 164.71 109.994C164.706 110.002 164.702 110.01 164.7 110.018C164.7 110.025 164.7 110.031 164.7 110.038L163.358 109.714C163.11 109.654 162.851 109.65 162.601 109.703C162.351 109.756 162.116 109.864 161.912 110.019C161.709 110.174 161.543 110.373 161.427 110.6C161.31 110.828 161.246 111.079 161.238 111.334C161.234 111.737 161.369 112.128 161.619 112.444C161.87 112.759 162.221 112.979 162.614 113.066L163.184 113.204C163.188 113.222 163.195 113.24 163.204 113.256C162.797 113.252 162.402 113.394 162.089 113.655C161.776 113.916 161.567 114.28 161.498 114.681C161.435 115.122 161.541 115.571 161.795 115.938C162.048 116.305 162.431 116.562 162.866 116.659L164.284 117.002C164.261 117.011 164.24 117.026 164.224 117.045C164.207 117.064 164.196 117.087 164.189 117.111C164.184 117.14 164.187 117.171 164.198 117.199C163.834 117.296 163.513 117.51 163.283 117.809C163.053 118.107 162.927 118.472 162.925 118.849C162.931 119.244 163.07 119.626 163.32 119.933C163.57 120.239 163.916 120.452 164.302 120.538L176.266 123.428C177.94 123.832 179.697 123.728 181.31 123.127C182.924 122.527 184.322 121.458 185.325 120.059V120.059C186.19 118.851 186.549 117.355 186.328 115.887C186.106 114.419 185.321 113.095 184.139 112.196L182.698 111.101Z" fill="#E98862"/>
<g opacity="0.2">
<path d="M172.476 111.769C172.466 111.809 172.441 111.843 172.406 111.865C172.371 111.887 172.328 111.894 172.288 111.885L164.819 110.206C164.799 110.202 164.78 110.193 164.763 110.181C164.746 110.169 164.731 110.154 164.72 110.136C164.709 110.119 164.701 110.099 164.698 110.079C164.694 110.058 164.695 110.037 164.699 110.017C164.704 109.996 164.713 109.977 164.725 109.96C164.737 109.943 164.752 109.929 164.769 109.918C164.787 109.907 164.807 109.899 164.827 109.895C164.848 109.892 164.869 109.892 164.889 109.897L172.357 111.576C172.378 111.58 172.397 111.589 172.414 111.601C172.431 111.613 172.445 111.628 172.457 111.646C172.468 111.664 172.475 111.683 172.479 111.704C172.482 111.724 172.482 111.745 172.477 111.766L172.476 111.769Z" fill="#0C0C0C"/>
</g>
<g opacity="0.2">
<path d="M171.827 115.083C171.817 115.123 171.792 115.158 171.756 115.18C171.72 115.202 171.678 115.209 171.637 115.199L163.302 113.327C163.282 113.323 163.263 113.314 163.246 113.302C163.228 113.29 163.214 113.275 163.203 113.257C163.192 113.239 163.184 113.22 163.181 113.199C163.177 113.179 163.178 113.158 163.182 113.137C163.193 113.097 163.219 113.062 163.254 113.04C163.289 113.018 163.332 113.01 163.373 113.018L171.707 114.889C171.728 114.894 171.747 114.903 171.764 114.915C171.781 114.927 171.796 114.942 171.807 114.96C171.818 114.977 171.826 114.997 171.829 115.017C171.833 115.038 171.832 115.059 171.827 115.079V115.083Z" fill="#0C0C0C"/>
</g>
<g opacity="0.2">
<path d="M171.145 118.677C171.135 118.717 171.11 118.751 171.075 118.773C171.04 118.795 170.997 118.802 170.957 118.793L164.308 117.3C164.267 117.291 164.232 117.265 164.209 117.23C164.187 117.195 164.179 117.152 164.188 117.111C164.198 117.07 164.223 117.034 164.258 117.011C164.294 116.989 164.337 116.981 164.378 116.991L171.026 118.484C171.047 118.488 171.066 118.497 171.083 118.509C171.1 118.521 171.115 118.536 171.126 118.554C171.137 118.571 171.145 118.591 171.148 118.612C171.152 118.632 171.151 118.653 171.146 118.674L171.145 118.677Z" fill="#0C0C0C"/>
</g>
<path d="M141.696 65.9459L146.518 56.2281C146.624 56.0146 146.773 55.8255 146.956 55.6728C147.139 55.5201 147.352 55.4072 147.581 55.3413C147.81 55.2754 148.05 55.2579 148.286 55.29C148.523 55.322 148.75 55.4029 148.953 55.5275C149.321 55.769 149.587 56.1386 149.698 56.5647C149.809 56.9908 149.758 57.443 149.555 57.8337L148.52 59.9175L154.779 54.8582C155.465 54.2834 156.675 54.017 157.268 54.8291C157.517 55.1267 157.658 55.4999 157.668 55.8878C157.677 56.2756 157.555 56.6553 157.321 56.9649C157.328 56.97 157.335 56.9758 157.341 56.9823C157.344 56.9879 157.347 56.9937 157.35 56.9997L158.408 56.1128C158.604 55.9488 158.834 55.8305 159.082 55.7667C159.329 55.7029 159.588 55.6951 159.839 55.744C160.09 55.7928 160.327 55.897 160.532 56.049C160.738 56.201 160.907 56.3969 161.027 56.6225C161.209 56.9816 161.263 57.3923 161.178 57.786C161.094 58.1797 160.877 58.5325 160.564 58.7855L160.113 59.1627C160.118 59.1807 160.12 59.1995 160.118 59.2181C160.481 59.0339 160.898 58.9849 161.294 59.0799C161.691 59.1749 162.04 59.4077 162.28 59.7366C162.532 60.1044 162.637 60.5538 162.572 60.995C162.507 61.4362 162.279 61.8368 161.932 62.1169L160.813 63.0535C160.839 63.0513 160.864 63.0552 160.887 63.0648C160.911 63.0744 160.931 63.0894 160.948 63.1086C160.966 63.1326 160.977 63.1613 160.979 63.1913C161.348 63.117 161.732 63.166 162.07 63.3309C162.409 63.4958 162.684 63.7674 162.853 64.1038C163.023 64.4607 163.068 64.8647 162.98 65.2504C162.893 65.6361 162.677 65.9808 162.369 66.2288L152.934 74.1327C151.614 75.2384 149.993 75.9248 148.281 76.1037C146.568 76.2827 144.841 75.9461 143.321 75.137C142.011 74.4395 141.024 73.2586 140.57 71.8451C140.116 70.4316 140.232 68.8969 140.891 67.567L141.696 65.9459Z" fill="#E98862"/>
<g opacity="0.2">
<path d="M151.151 62.0032C151.177 62.0351 151.216 62.0552 151.257 62.059C151.299 62.0629 151.34 62.0502 151.372 62.0238L157.319 57.2036C157.351 57.1772 157.372 57.1388 157.377 57.0971C157.381 57.0553 157.369 57.0135 157.342 56.9808C157.316 56.9482 157.277 56.9274 157.236 56.923C157.194 56.9187 157.152 56.9311 157.119 56.9575L151.173 61.7777C151.141 61.8041 151.12 61.8422 151.116 61.8837C151.111 61.9252 151.123 61.9668 151.149 61.9994L151.151 62.0032Z" fill="#0C0C0C"/>
</g>
<g opacity="0.2">
<path d="M153.204 64.6847C153.231 64.7165 153.269 64.7366 153.311 64.7403C153.352 64.7441 153.394 64.7314 153.426 64.7049L160.062 59.3258C160.094 59.2993 160.115 59.2612 160.119 59.2197C160.124 59.1782 160.111 59.1366 160.085 59.1041C160.058 59.0729 160.02 59.0532 159.979 59.0488C159.938 59.0445 159.897 59.0558 159.863 59.0806L153.225 64.4588C153.193 64.4852 153.172 64.5234 153.168 64.5649C153.163 64.6064 153.175 64.648 153.202 64.6806L153.204 64.6847Z" fill="#0C0C0C"/>
</g>
<g opacity="0.2">
<path d="M155.411 67.6012C155.438 67.6331 155.477 67.6532 155.518 67.657C155.56 67.6609 155.601 67.6482 155.633 67.6218L160.927 63.3309C160.959 63.3045 160.98 63.2661 160.985 63.2243C160.989 63.1826 160.977 63.1408 160.95 63.1081C160.924 63.0755 160.885 63.0547 160.843 63.0503C160.802 63.046 160.76 63.0584 160.727 63.0848L155.432 67.3757C155.4 67.4021 155.379 67.4402 155.375 67.4817C155.371 67.5232 155.383 67.5648 155.409 67.5974L155.411 67.6012Z" fill="#0C0C0C"/>
</g>
<path d="M33.4793 57.6138C33.4793 57.6138 32.7993 67.8175 30.5039 71.5186C23.8949 82.1762 21.9802 94.1653 28.5984 100.429C35.2166 106.694 77.4298 106.78 80.6279 92.3732C83.3201 80.2438 77.5425 78.9394 76.1365 68.9347C75.5005 64.4072 73.7506 54.9137 73.7506 54.9137" fill="#0A0A0A"/>
<path d="M69.7027 90.2609C69.6299 90.2514 68.8213 103.669 53.2343 102.499C42.4437 101.69 38.5963 90.2413 38.3492 90.2413C39.5126 89.9939 41.4716 89.6344 41.9882 89.3585C43.6875 88.4457 45.7891 87.4955 46.3377 84.1957C46.6544 82.2953 46.1175 72.5645 46.2826 70.6393L62.846 74.3376C62.6145 78.4016 60.9947 87.8227 66.6722 89.49C67.6167 89.7665 68.6344 90.0202 69.7027 90.2609Z" fill="#E98862"/>
<path opacity="0.5" d="M63.0781 85.6404C62.8187 84.8042 62.6516 83.9422 62.5799 83.0697C62.3979 81.0787 62.4342 79.0738 62.6882 77.0907C59.3219 76.6362 56.1505 75.2467 53.5345 73.0798C53.2269 74.2157 51.5352 79.1789 52.0037 80.2584C52.8883 82.2991 57.048 85.6404 63.0781 85.6404Z" fill="#0C0C0C"/>
<path d="M60.9363 81.4603C54.4058 82.0938 45.9566 79.4801 44.2063 70.7835L42.627 62.9366C40.8767 54.2403 44.0254 46.2712 52.2134 44.6232C60.4017 42.9761 67.9407 48.793 69.6909 57.4897L70.3903 60.9636C71.0618 64.3005 72.5875 80.3328 60.9363 81.4603Z" fill="#E98862"/>
<path opacity="0.1" d="M56.7853 70.0643C57.86 69.936 58.6549 69.1931 58.5609 68.4049C58.4668 67.6166 57.5194 67.0816 56.4448 67.2098C55.3701 67.338 54.5751 68.081 54.6692 68.8692C54.7632 69.6574 55.7107 70.1925 56.7853 70.0643Z" fill="#0C0C0C"/>
<path opacity="0.1" d="M68.1408 66.9129C68.2359 67.7 69.1845 68.2344 70.2592 68.1077C70.4449 68.0854 70.6278 68.0439 70.8049 67.9838C70.855 67.0453 70.8578 66.1426 70.8306 65.3068C70.5321 65.2321 70.2223 65.2139 69.9171 65.2532C68.8424 65.3799 68.0477 66.1227 68.1408 66.9129Z" fill="#0C0C0C"/>
<path opacity="0.5" d="M63.3924 69.3458C63.3978 69.3453 63.4031 69.3444 63.4083 69.3433C63.7401 69.2741 64.0679 69.1867 64.3902 69.0813C64.871 68.9204 65.4987 68.6563 65.4126 68.2214C65.3131 67.726 62.8787 62.6528 62.6025 62.0767C62.5912 62.0507 62.5747 62.0272 62.5542 62.0077C62.5336 61.9882 62.5093 61.9731 62.4827 61.9632C62.4561 61.9533 62.4278 61.9488 62.3995 61.9501C62.3711 61.9514 62.3434 61.9584 62.3178 61.9707C62.2922 61.983 62.2694 62.0003 62.2507 62.0216C62.2319 62.0428 62.2177 62.0677 62.2088 62.0946C62.1999 62.1216 62.1965 62.15 62.1988 62.1783C62.2012 62.2065 62.2092 62.234 62.2224 62.2591C63.2604 64.4196 64.9321 67.9718 64.9993 68.3053C64.9467 68.4608 64.1491 68.7646 63.3259 68.9306C63.2986 68.935 63.2724 68.9447 63.2489 68.9592C63.2254 68.9738 63.2049 68.9928 63.1887 69.0152C63.1725 69.0376 63.1609 69.063 63.1545 69.09C63.1482 69.1169 63.1472 69.1448 63.1516 69.1721C63.156 69.1994 63.1657 69.2256 63.1802 69.2491C63.1948 69.2726 63.2138 69.2931 63.2362 69.3093C63.2586 69.3255 63.284 69.3371 63.3109 69.3435C63.3379 69.3498 63.3658 69.3509 63.3931 69.3464L63.3924 69.3458Z" fill="#0C0C0C"/>
<path d="M36.0938 65.754L43.4345 64.3201C48.9796 62.0013 50.5528 52.3373 50.5528 52.3373C50.5528 52.3373 57.3963 58.8548 73.7519 54.9137C73.7519 54.9137 70.1991 32.0813 46.0485 39.0134C38.2615 41.248 32.7456 49.1855 33.5659 59.6986C34.1408 67.064 36.0938 65.754 36.0938 65.754Z" fill="#0A0A0A"/>
<path d="M45.248 73.3307C42.7597 73.8314 40.2068 71.5753 39.7051 69.0864C39.2034 66.5975 40.9455 64.8199 43.4338 64.3188L45.0517 65.7283L47.387 72.8996L45.248 73.3307Z" fill="#E98862"/>
<path d="M64.3663 58.031C64.9889 57.5908 65.7169 57.3232 66.4764 57.2556C66.858 57.219 67.243 57.2404 67.6182 57.319C67.9966 57.3961 68.3639 57.5204 68.7113 57.6889L68.7221 57.694C68.7606 57.711 68.8042 57.7122 68.8436 57.6975C68.883 57.6828 68.9151 57.6532 68.933 57.6151C68.951 57.577 68.9533 57.5334 68.9395 57.4936C68.9257 57.4539 68.8969 57.4211 68.8592 57.4023C68.491 57.2079 68.0998 57.0606 67.6949 56.9639C67.2871 56.8648 66.8667 56.8275 66.4479 56.8534C65.5995 56.9002 64.7792 57.1737 64.0724 57.6452C64.046 57.6631 64.0234 57.6859 64.0059 57.7125C63.9884 57.7391 63.9763 57.7689 63.9704 57.8001C63.9644 57.8314 63.9646 57.8635 63.9711 57.8947C63.9776 57.9259 63.9901 57.9555 64.008 57.9818C64.0259 58.0081 64.0489 58.0306 64.0755 58.048C64.1021 58.0655 64.1319 58.0775 64.1632 58.0834C64.1945 58.0893 64.2266 58.0889 64.2578 58.0824C64.2889 58.0759 64.3185 58.0632 64.3448 58.0453L64.3505 58.0415L64.3663 58.031Z" fill="#0C0C0C"/>
<path d="M57.6607 58.9578C56.8271 58.7919 55.9643 58.8528 55.1622 59.1342C54.7658 59.2707 54.3921 59.466 54.0537 59.7135C53.7165 59.9578 53.4115 60.2437 53.1459 60.5643C53.1191 60.5961 53.1056 60.6372 53.1084 60.6787C53.1111 60.7203 53.1299 60.7592 53.1607 60.7873C53.1915 60.8153 53.232 60.8304 53.2736 60.8292C53.3152 60.8281 53.3548 60.8109 53.3841 60.7812L53.3926 60.7724C53.649 60.4836 53.9405 60.2282 54.2605 60.0122C54.5771 59.7962 54.9246 59.6293 55.2912 59.5171C56.0187 59.2886 56.7937 59.2569 57.5375 59.4253L57.5558 59.43C57.6182 59.4452 57.6841 59.4349 57.7389 59.4014C57.7938 59.368 57.8331 59.3141 57.8482 59.2517C57.8633 59.1893 57.853 59.1234 57.8196 59.0686C57.7861 59.0138 57.7323 58.9745 57.6699 58.9594L57.6607 58.9578Z" fill="#0C0C0C"/>
<path d="M43.4393 64.1991C48.3738 62.3621 50.0113 58.9546 50.5156 56.4188C50.8419 54.7276 50.8114 52.9869 50.4259 51.3083L50.2733 51.3504C50.6529 53.0072 50.6823 54.725 50.3594 56.3938C49.8615 58.8881 48.2474 62.2411 43.3839 64.0512L43.4393 64.1991Z" fill="#0C0C0C"/>
<path d="M82.3972 91.8569L129.251 107.519L115.495 113.633L138.858 65.7046L157.952 74.603L136.275 123.317C135.179 125.781 133.233 127.767 130.793 128.914C128.352 130.061 125.581 130.292 122.985 129.564L122.519 129.432L74.9554 116.078L82.3972 91.8569Z" fill="#3DC9A2"/>
<path d="M52.9435 99.1447C42.1453 98.6357 41.6907 89.4706 41.6907 89.4706C41.6907 89.4706 36.3404 89.8165 32.7838 90.2976C26.9609 91.0854 23.1195 93.0599 20.0623 96.1167C17.2187 98.9607 15.4874 102.037 17.3194 121.681C18.6459 135.904 17.7125 167.189 17.7125 167.189H83.5146C83.5146 167.189 88.1095 121.991 88.6543 115.589C89.6938 103.367 92.631 100.669 86.6801 94.3725C82.3645 89.8064 71.2233 89.4706 66.739 89.4713C66.6658 89.4713 67.6489 99.8381 52.9435 99.1447Z" fill="#3DC9A2"/>
<path d="M65.5812 71.06C63.4594 72.1389 61.0387 72.48 58.7014 72.0295C58.6204 72.0143 58.5369 72.0225 58.4604 72.0531C58.384 72.0836 58.3178 72.1353 58.2696 72.202C58.2214 72.2688 58.1932 72.3479 58.1883 72.4301C58.1834 72.5122 58.2019 72.5941 58.2418 72.6662C58.9386 73.8938 60.5913 75.9919 63.4268 75.1367C65.2575 74.5843 65.9496 72.701 66.2061 71.5357C66.2237 71.4551 66.2179 71.3712 66.1894 71.2938C66.1608 71.2164 66.1108 71.1488 66.0452 71.0988C65.9796 71.0488 65.9011 71.0186 65.8189 71.0118C65.7367 71.0049 65.6542 71.0216 65.5812 71.06Z" fill="white"/>
<path d="M65.7139 61.6237C66.2801 61.6237 66.7392 61.1647 66.7392 60.5984C66.7392 60.0322 66.2801 59.5732 65.7139 59.5732C65.1476 59.5732 64.6886 60.0322 64.6886 60.5984C64.6886 61.1647 65.1476 61.6237 65.7139 61.6237Z" fill="#0C0C0C"/>
<path d="M55.8621 63.3484C56.4283 63.3484 56.8873 62.8893 56.8873 62.3231C56.8873 61.7568 56.4283 61.2978 55.8621 61.2978C55.2958 61.2978 54.8368 61.7568 54.8368 62.3231C54.8368 62.8893 55.2958 63.3484 55.8621 63.3484Z" fill="#0C0C0C"/>
<path d="M88.508 120.043C88.5013 120.043 88.4946 120.043 88.488 120.043C88.4464 120.038 88.4086 120.016 88.3828 119.983C88.357 119.95 88.3454 119.908 88.3505 119.866L89.3695 111.606C89.3717 111.586 89.378 111.566 89.3881 111.547C89.3983 111.529 89.412 111.513 89.4285 111.5C89.4449 111.487 89.4638 111.478 89.484 111.473C89.5042 111.467 89.5252 111.466 89.5459 111.469C89.5666 111.472 89.5865 111.478 89.6046 111.488C89.6227 111.499 89.6386 111.512 89.6514 111.529C89.6642 111.545 89.6737 111.564 89.6792 111.584C89.6847 111.604 89.6863 111.625 89.6837 111.646L88.6647 119.905C88.6597 119.943 88.641 119.978 88.6122 120.003C88.5833 120.029 88.5463 120.043 88.508 120.043V120.043Z" fill="#0C0C0C"/>
<path d="M255.069 56.3083C255.069 56.3083 251.144 51.9002 251.599 43.6451C251.951 37.2533 256.882 42.4225 256.882 42.4225C256.882 42.4225 257.18 37.8225 260.355 38.9178C263.53 40.0131 264.422 45.0853 264.422 45.0853" fill="#0C0C0C"/>
<path d="M277.128 42.8061C277.128 42.8061 292.982 47.7722 282.75 68.5568L281.298 68.3668L278.349 67.9819" fill="#0C0C0C"/>
<path d="M254.575 90.2273C254.648 90.2178 255.454 103.59 270.989 102.425C281.744 101.619 285.578 90.2086 285.825 90.2086C284.665 89.9619 282.713 89.6037 282.198 89.3287C280.504 88.4188 278.409 87.472 277.863 84.1834C277.548 82.2877 278.082 72.5908 277.918 70.6726L261.409 74.3572C261.64 78.4076 263.254 87.7976 257.595 89.4596C256.654 89.7345 255.639 89.9872 254.575 90.2273Z" fill="#E98862"/>
<path opacity="0.52" d="M261.177 85.6223C261.436 84.7888 261.602 83.9296 261.674 83.0599C261.856 81.0754 261.819 79.077 261.566 77.1005C264.922 76.6477 268.083 75.2628 270.69 73.1032C270.997 74.2352 272.683 79.182 272.216 80.258C271.334 82.2918 267.187 85.6223 261.177 85.6223Z" fill="#0C0C0C"/>
<path d="M263.157 81.0936C269.659 81.7939 278.107 79.2818 279.947 70.6336L281.605 62.8302C283.442 54.1833 280.392 46.2056 272.249 44.4746C264.106 42.7437 256.53 48.4608 254.691 57.109L253.957 60.5636C253.725 61.7541 253.575 62.9591 253.508 64.17C253.305 67.369 253.01 72.2357 254.486 75.8617C255.88 79.285 259.004 80.646 263.157 81.0936Z" fill="#E98862"/>
<path d="M257.993 61.1702C258.559 61.1702 259.018 60.7112 259.018 60.1449C259.018 59.5787 258.559 59.1196 257.993 59.1196C257.427 59.1196 256.968 59.5787 256.968 60.1449C256.968 60.7112 257.427 61.1702 257.993 61.1702Z" fill="#0C0C0C"/>
<path d="M267.731 62.1954C268.297 62.1954 268.756 61.7364 268.756 61.1702C268.756 60.6039 268.297 60.1449 267.731 60.1449C267.164 60.1449 266.705 60.6039 266.705 61.1702C266.705 61.7364 267.164 62.1954 267.731 62.1954Z" fill="#0C0C0C"/>
<path d="M278.88 73.1609C281.355 73.687 283.924 71.466 284.45 68.9914C284.976 66.5167 283.26 64.7259 280.786 64.1998L279.158 65.5867L276.753 72.7086L278.88 73.1609Z" fill="#E98862"/>
<path d="M277.209 68.6826C277.209 68.6826 278.816 56.2471 275.247 54.748C272.871 53.7497 266.161 56.0663 260.808 53.8957C258.466 52.9455 256.034 53.088 255.57 54.1912C255.386 54.628 255.173 47.782 259.976 43.5757C263.8 40.2266 273.956 41.0903 278.217 43.2878C290.016 49.372 281.191 64.8421 281.191 64.8421L279.79 68.9597L277.209 68.6826Z" fill="#0C0C0C"/>
<g opacity="0.52">
<path d="M260.66 69.5723L260.644 69.5697C259.846 69.4022 258.526 69.0313 258.651 68.4355C258.755 67.9411 261.229 62.8866 261.511 62.312C261.535 62.2626 261.578 62.2248 261.63 62.207C261.682 62.1892 261.739 62.1928 261.789 62.217C261.838 62.2412 261.876 62.2841 261.894 62.3362C261.912 62.3883 261.908 62.4454 261.884 62.4948C260.786 64.7329 259.128 68.1847 259.057 68.5207C259.106 68.6791 259.903 68.9898 260.729 69.1631C260.781 69.1747 260.826 69.2057 260.856 69.2499C260.885 69.294 260.897 69.3478 260.888 69.4002C260.879 69.4527 260.851 69.4997 260.808 69.5317C260.766 69.5637 260.713 69.5783 260.66 69.5723V69.5723Z" fill="#0C0C0C"/>
</g>
<path d="M260.476 56.9376C259.692 56.5421 258.816 56.3651 257.94 56.4255C257.509 56.4526 257.085 56.5441 256.682 56.6969C256.283 56.8463 255.905 57.0455 255.556 57.2898C255.497 57.327 255.456 57.3856 255.44 57.4531C255.425 57.5205 255.436 57.5914 255.473 57.6503C255.509 57.7092 255.567 57.7515 255.634 57.7681C255.701 57.7846 255.772 57.7741 255.832 57.7387L255.85 57.7282C256.17 57.5297 256.514 57.3722 256.873 57.2594C257.228 57.1462 257.597 57.0874 257.969 57.0849C258.704 57.0741 259.429 57.2578 260.07 57.6174L260.094 57.6316C260.139 57.6584 260.189 57.676 260.241 57.6834C260.292 57.6908 260.345 57.688 260.396 57.675C260.446 57.662 260.494 57.6391 260.536 57.6076C260.577 57.5762 260.612 57.5368 260.639 57.4917C260.665 57.4466 260.683 57.3968 260.69 57.345C260.697 57.2932 260.694 57.2405 260.68 57.19C260.667 57.1395 260.644 57.0921 260.612 57.0506C260.58 57.0091 260.541 56.9742 260.495 56.9481L260.476 56.9376Z" fill="#0C0C0C"/>
<path d="M266.339 58.5223C267.051 58.3395 267.799 58.3482 268.506 58.5473C268.865 58.6454 269.207 58.7972 269.52 58.9974C269.838 59.1988 270.13 59.4394 270.388 59.7135L270.403 59.7278C270.451 59.7751 270.517 59.8018 270.585 59.8022C270.653 59.8026 270.718 59.7767 270.768 59.73C270.817 59.6832 270.846 59.6192 270.85 59.5513C270.853 59.4834 270.83 59.4168 270.786 59.3654C270.511 59.0397 270.196 58.7499 269.849 58.5029C269.499 58.2518 269.112 58.0545 268.703 57.9176C267.872 57.6338 266.98 57.5791 266.121 57.7592C266.07 57.7703 266.022 57.7913 265.979 57.821C265.936 57.8507 265.9 57.8885 265.872 57.9323C265.815 58.0208 265.796 58.1282 265.818 58.2309C265.841 58.3335 265.903 58.4231 265.991 58.4799C266.08 58.5367 266.187 58.556 266.29 58.5337L266.31 58.5286L266.339 58.5223Z" fill="#0C0C0C"/>
<path d="M259.405 71.4908C261.715 72.0678 264.15 71.8587 266.328 70.8966C266.403 70.8637 266.486 70.8529 266.568 70.8656C266.649 70.8783 266.725 70.9138 266.787 70.9681C266.849 71.0223 266.894 71.0931 266.917 71.1721C266.941 71.251 266.941 71.335 266.918 71.4141C266.513 72.7669 265.372 75.1833 262.418 74.9831C260.51 74.8545 259.414 73.1736 258.902 72.0954C258.866 72.0207 258.853 71.9373 258.863 71.8552C258.874 71.7732 258.907 71.6958 258.96 71.6322C259.013 71.5686 259.083 71.5215 259.162 71.4965C259.241 71.4714 259.325 71.4694 259.405 71.4908V71.4908Z" fill="white"/>
<path d="M268.569 45.3475C269.673 42.7573 269.14 40.0497 267.381 39.3C265.621 38.5503 263.3 40.0424 262.196 42.6326C261.093 45.2229 261.625 47.9304 263.385 48.6801C265.144 49.4298 267.466 47.9377 268.569 45.3475Z" fill="#0C0C0C"/>
<path d="M271.23 99.1447C282.028 98.6357 282.483 89.4706 282.483 89.4706C282.483 89.4706 287.833 89.8165 291.39 90.2976C297.213 91.0854 301.054 93.0599 304.111 96.1167C306.955 98.9607 308.686 102.037 306.854 121.681C305.528 135.904 306.461 167.189 306.461 167.189H240.659C240.659 167.189 236.064 121.992 235.52 115.589C234.48 103.367 231.543 100.669 237.494 94.3725C241.809 89.8064 252.95 89.4706 257.435 89.4713C257.508 89.4713 256.526 99.8381 271.23 99.1447Z" fill="#3DC9A2"/>
<path d="M235.364 97.2031L218.351 133.271L184.801 108.041L171.475 125.761L215.901 159.169C216.298 159.464 216.714 159.735 217.144 159.98C218.414 160.691 219.811 161.145 221.256 161.316C222.701 161.488 224.165 161.373 225.566 160.978C226.966 160.583 228.275 159.917 229.418 159.016C230.561 158.115 231.515 156.999 232.226 155.729L232.419 155.386L258.374 109.057L235.364 97.2031Z" fill="#3DC9A2"/>
<path d="M308.986 167.506H9.3265C9.2425 167.506 9.16194 167.473 9.10254 167.413C9.04314 167.354 9.00977 167.273 9.00977 167.189C9.00977 167.105 9.04314 167.025 9.10254 166.965C9.16194 166.906 9.2425 166.873 9.3265 166.873H308.986C309.07 166.873 309.151 166.906 309.21 166.965C309.27 167.025 309.303 167.105 309.303 167.189C309.303 167.273 309.27 167.354 309.21 167.413C309.151 167.473 309.07 167.506 308.986 167.506Z" fill="#292A2E"/>
<path d="M243.808 120.078H83.3429V174.927H243.808V120.078Z" fill="white"/>
<path d="M243.966 175.086H83.1846V119.919H243.966V175.086ZM83.5013 174.769H243.649V120.236H83.5013V174.769Z" fill="#0C0C0C"/>
<path d="M75.4194 136.841L85.3248 132.417C85.5424 132.32 85.7779 132.269 86.0163 132.268C86.2547 132.266 86.4907 132.315 86.7093 132.41C86.9279 132.505 87.1243 132.645 87.286 132.82C87.4478 132.995 87.5713 133.202 87.6487 133.427C87.7787 133.848 87.7479 134.302 87.5622 134.701C87.3765 135.1 87.0491 135.416 86.6437 135.588L84.5196 136.538L92.5682 136.621C93.4633 136.614 94.5656 137.179 94.5067 138.183C94.5092 138.571 94.3802 138.949 94.1407 139.254C93.9012 139.559 93.5653 139.774 93.1878 139.864C93.19 139.873 93.1913 139.881 93.1916 139.89C93.1906 139.896 93.1893 139.903 93.1874 139.909L94.5678 139.899C94.8232 139.898 95.0758 139.953 95.3072 140.061C95.5386 140.17 95.7429 140.328 95.9052 140.525C96.0676 140.723 96.184 140.953 96.2459 141.201C96.3078 141.449 96.3136 141.708 96.263 141.958C96.175 142.351 95.9546 142.702 95.6389 142.952C95.3232 143.202 94.9312 143.336 94.5285 143.331L93.9413 143.335C93.9335 143.352 93.9228 143.368 93.9096 143.381C94.307 143.47 94.6597 143.698 94.9046 144.024C95.1495 144.349 95.2707 144.751 95.2466 145.157C95.2073 145.602 95.0019 146.015 94.6714 146.314C94.3409 146.614 93.9096 146.777 93.4636 146.773L92.0048 146.783C92.0253 146.798 92.0421 146.816 92.054 146.838C92.0659 146.86 92.0724 146.885 92.0732 146.91C92.0719 146.94 92.062 146.969 92.0447 146.993C92.3766 147.171 92.6409 147.453 92.797 147.796C92.953 148.138 92.9922 148.523 92.9084 148.89C92.8125 149.273 92.59 149.614 92.2768 149.855C91.9637 150.096 91.5782 150.225 91.1828 150.22L78.8744 150.308C77.1527 150.32 75.4664 149.818 74.0319 148.866C72.5974 147.914 71.4799 146.555 70.8226 144.963V144.963C70.2559 143.591 70.2466 142.052 70.7966 140.673C71.3467 139.294 72.4127 138.184 73.7683 137.578L75.4194 136.841Z" fill="#E98862"/>
<g opacity="0.2">
<path d="M85.2206 139.82C85.2212 139.862 85.2381 139.901 85.2677 139.931C85.2974 139.96 85.3373 139.976 85.3789 139.976L93.0332 140.045C93.0752 140.045 93.1157 140.029 93.1456 140C93.1756 139.97 93.1926 139.93 93.193 139.888C93.1934 139.846 93.1771 139.806 93.1476 139.776C93.1182 139.746 93.0781 139.729 93.0361 139.728L85.3818 139.659C85.3398 139.659 85.2995 139.676 85.2698 139.706C85.2401 139.735 85.2234 139.776 85.2234 139.818L85.2206 139.82Z" fill="#0C0C0C"/>
</g>
<g opacity="0.2">
<path d="M85.097 143.196C85.0976 143.238 85.1146 143.278 85.1442 143.307C85.1738 143.336 85.2138 143.352 85.2554 143.352L93.7975 143.429C93.8395 143.429 93.8798 143.413 93.9095 143.383C93.9392 143.353 93.9559 143.313 93.9559 143.271C93.9544 143.229 93.9373 143.19 93.9079 143.161C93.8785 143.131 93.839 143.114 93.7975 143.113L85.2554 143.036C85.2345 143.035 85.2137 143.039 85.1943 143.047C85.1749 143.055 85.1573 143.067 85.1424 143.081C85.1275 143.096 85.1157 143.114 85.1077 143.133C85.0996 143.152 85.0955 143.173 85.0955 143.194L85.097 143.196Z" fill="#0C0C0C"/>
</g>
<g opacity="0.2">
<path d="M84.9421 146.849C84.9427 146.891 84.9597 146.931 84.9893 146.96C85.0189 146.989 85.0589 147.006 85.1005 147.006L91.9145 147.067C91.9565 147.067 91.9969 147.051 92.0269 147.022C92.0568 146.992 92.0739 146.952 92.0743 146.91C92.0746 146.868 92.0583 146.828 92.0289 146.798C91.9995 146.768 91.9593 146.751 91.9173 146.75L85.1034 146.689C85.0614 146.689 85.0211 146.706 84.9914 146.735C84.9617 146.765 84.945 146.805 84.945 146.847L84.9421 146.849Z" fill="#0C0C0C"/>
</g>
<path d="M78.2545 154.477L23.3364 166.962C21.512 167.16 19.6664 166.933 17.9444 166.299C16.2224 165.664 14.6709 164.639 13.4115 163.304C12.1522 161.97 11.2193 160.361 10.6861 158.605C10.1528 156.849 10.0337 154.993 10.3381 153.184L16.6228 102.632C17.1455 99.5258 18.8808 96.7542 21.447 94.9271C24.0132 93.1001 27.2002 92.3673 30.3067 92.89C33.4132 93.4126 36.1848 95.148 38.0119 97.7142C39.8389 100.28 40.5717 103.467 40.049 106.574L37.0226 142.756L75.178 134.121L78.2545 154.477Z" fill="#3DC9A2"/>
<path d="M29.3016 144.178C29.2618 144.178 29.2236 144.162 29.1946 144.135C29.1656 144.108 29.1479 144.071 29.145 144.031C29.142 143.992 29.1542 143.952 29.1789 143.921C29.2036 143.89 29.2392 143.869 29.2785 143.863L36.9312 142.229C36.9517 142.226 36.9728 142.227 36.9931 142.232C37.0133 142.236 37.0324 142.245 37.0492 142.258C37.066 142.27 37.0801 142.286 37.0907 142.304C37.1013 142.322 37.1083 142.342 37.1111 142.362C37.1172 142.404 37.1067 142.446 37.0818 142.48C37.0568 142.513 37.0195 142.536 36.978 142.542L29.3253 144.176C29.3175 144.177 29.3096 144.178 29.3016 144.178V144.178Z" fill="#0C0C0C"/>
<path d="M24.9842 167.189C24.9422 167.192 24.9008 167.178 24.8692 167.15C24.8376 167.122 24.8183 167.083 24.8155 167.041C24.8128 166.999 24.8269 166.958 24.8546 166.926C24.8824 166.895 24.9216 166.875 24.9636 166.873L77.91 154.402L74.9099 134.353L36.9822 142.541C36.9577 142.544 36.9328 142.541 36.9094 142.533C36.8861 142.525 36.8649 142.511 36.8476 142.494C36.8303 142.476 36.8174 142.454 36.8101 142.43C36.8027 142.407 36.801 142.382 36.8051 142.357L38.9327 121.684C38.9358 121.663 38.9431 121.643 38.9541 121.626C38.965 121.608 38.9794 121.592 38.9964 121.58C39.0135 121.568 39.0327 121.56 39.0531 121.555C39.0735 121.551 39.0946 121.55 39.1151 121.554C39.1565 121.561 39.1935 121.584 39.2178 121.618C39.2422 121.652 39.2519 121.695 39.245 121.736L37.1545 142.198L74.9837 134.004C75.004 133.998 75.0253 133.996 75.0463 133.999C75.0672 134.002 75.0874 134.009 75.1056 134.019C75.1238 134.03 75.1397 134.044 75.1524 134.061C75.165 134.078 75.1742 134.097 75.1794 134.118L78.2559 154.476C78.2656 154.516 78.2594 154.558 78.2385 154.593C78.2176 154.629 78.1838 154.655 78.1441 154.666L25.0048 167.188C24.9979 167.189 24.9911 167.189 24.9842 167.189V167.189Z" fill="#0C0C0C"/>
<path d="M248.754 146.343L238.849 141.919C238.631 141.822 238.396 141.771 238.157 141.77C237.919 141.769 237.683 141.817 237.464 141.912C237.246 142.007 237.05 142.147 236.888 142.322C236.726 142.497 236.603 142.704 236.525 142.929C236.395 143.35 236.426 143.804 236.612 144.203C236.797 144.602 237.125 144.918 237.53 145.09L239.654 146.04L231.605 146.123C230.711 146.116 229.608 146.681 229.667 147.685C229.665 148.073 229.794 148.451 230.033 148.756C230.273 149.061 230.609 149.277 230.986 149.366C230.984 149.375 230.982 149.383 230.982 149.392C230.983 149.398 230.984 149.405 230.986 149.411L229.606 149.401C229.351 149.4 229.098 149.455 228.867 149.563C228.635 149.672 228.431 149.83 228.268 150.027C228.106 150.225 227.99 150.456 227.928 150.703C227.866 150.951 227.86 151.21 227.911 151.46C227.999 151.853 228.219 152.204 228.535 152.454C228.851 152.704 229.242 152.838 229.645 152.833L230.233 152.837C230.241 152.854 230.251 152.87 230.264 152.883C229.867 152.973 229.514 153.2 229.269 153.526C229.024 153.851 228.903 154.253 228.927 154.66C228.967 155.104 229.172 155.517 229.503 155.816C229.833 156.116 230.265 156.28 230.711 156.275L232.17 156.285C232.149 156.3 232.132 156.318 232.12 156.341C232.108 156.363 232.102 156.387 232.101 156.412C232.102 156.442 232.112 156.471 232.129 156.495C231.797 156.673 231.533 156.955 231.377 157.298C231.221 157.64 231.182 158.025 231.266 158.392C231.361 158.776 231.584 159.116 231.897 159.357C232.21 159.599 232.596 159.727 232.991 159.722L245.3 159.81C247.022 159.822 248.708 159.32 250.143 158.368C251.577 157.415 252.695 156.056 253.352 154.464V154.464C253.918 153.092 253.928 151.553 253.378 150.174C252.828 148.795 251.762 147.685 250.406 147.079L248.754 146.343Z" fill="#E98862"/>
<g opacity="0.2">
<path d="M238.953 149.322C238.953 149.364 238.936 149.404 238.906 149.433C238.876 149.462 238.836 149.478 238.795 149.478L231.141 149.547C231.12 149.547 231.099 149.543 231.08 149.536C231.061 149.528 231.043 149.516 231.028 149.502C231.013 149.487 231.001 149.47 230.993 149.451C230.985 149.432 230.981 149.411 230.981 149.39C230.981 149.369 230.984 149.349 230.992 149.329C231 149.31 231.012 149.293 231.026 149.278C231.041 149.263 231.058 149.251 231.077 149.243C231.096 149.235 231.117 149.231 231.138 149.23L238.792 149.161C238.834 149.161 238.874 149.178 238.904 149.208C238.934 149.237 238.95 149.278 238.95 149.32L238.953 149.322Z" fill="#0C0C0C"/>
</g>
<g opacity="0.2">
<path d="M239.077 152.698C239.076 152.74 239.059 152.779 239.03 152.808C239.001 152.838 238.961 152.854 238.92 152.854L230.377 152.931C230.335 152.931 230.295 152.915 230.265 152.885C230.236 152.855 230.219 152.815 230.219 152.773C230.22 152.732 230.237 152.692 230.267 152.663C230.296 152.633 230.336 152.616 230.377 152.615L238.919 152.538C238.961 152.538 239.002 152.554 239.031 152.584C239.061 152.614 239.078 152.654 239.078 152.696L239.077 152.698Z" fill="#0C0C0C"/>
</g>
<g opacity="0.2">
<path d="M239.232 156.352C239.231 156.393 239.214 156.433 239.185 156.462C239.155 156.491 239.115 156.508 239.074 156.508L232.26 156.569C232.239 156.569 232.218 156.565 232.199 156.558C232.18 156.55 232.162 156.538 232.147 156.524C232.132 156.509 232.12 156.492 232.112 156.473C232.104 156.454 232.1 156.433 232.1 156.412C232.1 156.391 232.103 156.371 232.111 156.352C232.119 156.332 232.131 156.315 232.145 156.3C232.16 156.285 232.177 156.273 232.196 156.265C232.215 156.257 232.236 156.253 232.257 156.252L239.071 156.191C239.113 156.191 239.153 156.208 239.183 156.237C239.212 156.267 239.229 156.307 239.229 156.349L239.232 156.352Z" fill="#0C0C0C"/>
</g>
<path d="M249.086 163.98L300.837 166.962C302.662 167.16 304.507 166.933 306.229 166.299C307.951 165.664 309.503 164.639 310.762 163.304C312.021 161.97 312.954 160.361 313.487 158.605C314.021 156.849 314.14 154.993 313.835 153.184L307.552 102.631C307.293 101.093 306.734 99.6204 305.906 98.2983C305.078 96.9763 303.998 95.8302 302.728 94.9256C301.457 94.0209 300.021 93.3754 298.501 93.0258C296.98 92.6763 295.406 92.6296 293.868 92.8884C292.33 93.1472 290.858 93.7064 289.536 94.5342C288.214 95.3619 287.068 96.4419 286.163 97.7126C285.258 98.9833 284.613 100.42 284.263 101.94C283.914 103.46 283.867 105.034 284.126 106.572L287.152 144.972L249.314 143.622L249.086 163.98Z" fill="#3DC9A2"/>
<path d="M294.872 144.812C294.912 144.811 294.95 144.796 294.979 144.769C295.008 144.742 295.026 144.705 295.029 144.665C295.032 144.625 295.02 144.586 294.995 144.555C294.97 144.524 294.935 144.503 294.895 144.497L287.243 144.446C287.222 144.443 287.201 144.444 287.181 144.449C287.16 144.454 287.141 144.463 287.125 144.475C287.108 144.487 287.094 144.503 287.083 144.521C287.072 144.539 287.065 144.559 287.063 144.579C287.056 144.621 287.067 144.663 287.092 144.697C287.117 144.731 287.154 144.753 287.196 144.759L294.849 144.81C294.856 144.811 294.864 144.812 294.872 144.812Z" fill="#0C0C0C"/>
<path d="M299.19 167.189C299.232 167.192 299.274 167.178 299.305 167.15C299.337 167.122 299.356 167.083 299.359 167.041C299.361 166.999 299.347 166.958 299.32 166.926C299.292 166.895 299.253 166.875 299.211 166.873L249.431 163.906L249.58 143.856L287.191 144.759C287.215 144.762 287.24 144.759 287.264 144.751C287.287 144.743 287.308 144.73 287.326 144.712C287.343 144.694 287.356 144.673 287.363 144.649C287.37 144.625 287.372 144.6 287.368 144.576L285.241 121.685C285.238 121.664 285.23 121.645 285.219 121.627C285.208 121.609 285.194 121.594 285.177 121.582C285.16 121.57 285.141 121.561 285.12 121.556C285.1 121.552 285.079 121.551 285.058 121.555C285.038 121.559 285.018 121.566 285.001 121.577C284.983 121.588 284.968 121.602 284.955 121.619C284.943 121.636 284.935 121.656 284.93 121.676C284.925 121.696 284.925 121.717 284.928 121.738L287.02 144.416L249.508 143.507C249.487 143.501 249.466 143.5 249.445 143.503C249.424 143.505 249.404 143.512 249.386 143.523C249.368 143.534 249.352 143.548 249.339 143.565C249.326 143.582 249.317 143.601 249.312 143.621L249.086 163.979C249.076 164.019 249.082 164.061 249.103 164.097C249.124 164.132 249.158 164.158 249.198 164.169L299.168 167.186C299.176 167.188 299.183 167.189 299.19 167.189V167.189Z" fill="#0C0C0C"/>
<path d="M121.386 155.966H117.18L114.82 146.814C114.733 146.488 114.584 145.815 114.374 144.795C114.163 143.774 114.042 143.089 114.01 142.739C113.962 143.168 113.843 143.857 113.652 144.806C113.462 145.756 113.315 146.433 113.212 146.838L110.864 155.966H106.67L102.225 138.545H105.859L108.088 148.054C108.477 149.81 108.759 151.331 108.934 152.618C108.981 152.165 109.09 151.464 109.261 150.515C109.433 149.566 109.593 148.829 109.744 148.305L112.282 138.545H115.774L118.312 148.305C118.423 148.742 118.562 149.409 118.729 150.306C118.896 151.204 119.022 151.975 119.109 152.619C119.188 151.999 119.315 151.226 119.489 150.301C119.663 149.375 119.821 148.626 119.964 148.055L122.181 138.546H125.816L121.386 155.966Z" fill="#FF8A00"/>
<path d="M138.045 155.966H128.011V138.545H138.045V141.572H131.706V145.397H137.604V148.422H131.706V152.915H138.045V155.966Z" fill="#FF8A00"/>
<path d="M141.679 155.966V138.545H145.373V152.916H152.439V155.967L141.679 155.966Z" fill="#FF8A00"/>
<path d="M162.866 141.368C162.24 141.34 161.616 141.468 161.052 141.742C160.488 142.015 160.001 142.426 159.636 142.935C158.873 143.98 158.492 145.436 158.492 147.303C158.492 151.188 159.95 153.131 162.865 153.131C164.387 153.072 165.889 152.761 167.31 152.212V155.31C165.788 155.924 164.16 156.227 162.52 156.204C159.986 156.204 158.047 155.435 156.704 153.898C155.361 152.361 154.69 150.154 154.69 147.278C154.654 145.637 154.993 144.009 155.68 142.518C156.289 141.21 157.28 140.118 158.522 139.384C159.844 138.635 161.345 138.258 162.865 138.294C164.636 138.313 166.379 138.732 167.964 139.521L166.772 142.524C166.132 142.219 165.476 141.948 164.806 141.714C164.184 141.49 163.528 141.373 162.866 141.368V141.368Z" fill="#FF8A00"/>
<path d="M186.829 147.231C186.829 150.115 186.114 152.331 184.684 153.88C183.254 155.43 181.205 156.204 178.535 156.204C175.866 156.204 173.817 155.429 172.387 153.88C170.957 152.331 170.242 150.107 170.242 147.207C170.242 144.308 170.959 142.093 172.393 140.564C173.827 139.035 175.882 138.27 178.559 138.27C181.236 138.27 183.284 139.041 184.702 140.582C186.121 142.124 186.83 144.34 186.829 147.231ZM174.115 147.231C174.115 149.177 174.484 150.643 175.223 151.628C175.962 152.613 177.066 153.106 178.536 153.106C181.483 153.106 182.957 151.148 182.957 147.231C182.957 143.307 181.491 141.345 178.559 141.345C177.09 141.345 175.981 141.839 175.234 142.828C174.486 143.817 174.113 145.285 174.115 147.231Z" fill="#FF8A00"/>
<path d="M197.816 155.966L193.622 142.298H193.514C193.665 145.079 193.741 146.933 193.741 147.863V155.966H190.44V138.545H195.469L199.591 151.868H199.663L204.036 138.545H209.065V155.966H205.621V147.72C205.621 147.331 205.627 146.882 205.639 146.373C205.65 145.864 205.704 144.514 205.8 142.322H205.692L201.2 155.966H197.816Z" fill="#FF8A00"/>
<path d="M223.483 155.966H213.449V138.545H223.483V141.572H217.144V145.397H223.043V148.422H217.144V152.915H223.483V155.966Z" fill="#FF8A00"/>
</svg>
